<svg width="341" height="59" viewBox="0 0 341 59" fill="none" xmlns="http://www.w3.org/2000/svg">
<g filter="url(#filter0_i_17_421)">
<rect x="0.119141" y="0.667236" width="340" height="58" rx="29" fill="white"/>
<path d="M127.445 35.8652C126.521 35.8652 125.657 35.6972 124.853 35.3612C124.061 35.0252 123.365 34.5632 122.765 33.9752C122.165 33.3752 121.697 32.6852 121.361 31.9052C121.025 31.1132 120.857 30.2672 120.857 29.3672C120.857 28.4672 121.019 27.6272 121.343 26.8472C121.679 26.0552 122.147 25.3652 122.747 24.7772C123.347 24.1772 124.043 23.7092 124.835 23.3732C125.627 23.0372 126.485 22.8692 127.409 22.8692C128.405 22.8692 129.347 23.0612 130.235 23.4452C131.123 23.8292 131.873 24.3632 132.485 25.0472L131.189 26.3072C130.733 25.7672 130.169 25.3532 129.497 25.0652C128.837 24.7652 128.141 24.6152 127.409 24.6152C126.749 24.6152 126.137 24.7352 125.573 24.9752C125.021 25.2152 124.535 25.5512 124.115 25.9832C123.695 26.4032 123.365 26.9012 123.125 27.4772C122.897 28.0532 122.783 28.6832 122.783 29.3672C122.783 30.0392 122.897 30.6692 123.125 31.2572C123.365 31.8332 123.695 32.3372 124.115 32.7692C124.547 33.2012 125.045 33.5372 125.609 33.7772C126.173 34.0172 126.785 34.1372 127.445 34.1372C128.189 34.1372 128.861 33.9812 129.461 33.6692C130.073 33.3572 130.571 32.9312 130.955 32.3912C131.339 31.8392 131.573 31.2212 131.657 30.5372H127.463V28.8812H133.637V29.5292C133.637 30.4292 133.481 31.2632 133.169 32.0312C132.857 32.7992 132.419 33.4712 131.855 34.0472C131.303 34.6232 130.649 35.0732 129.893 35.3972C129.137 35.7092 128.321 35.8652 127.445 35.8652ZM139.974 35.8292C139.074 35.8292 138.258 35.6192 137.526 35.1992C136.806 34.7792 136.23 34.2092 135.798 33.4892C135.378 32.7692 135.168 31.9652 135.168 31.0772C135.168 30.2012 135.372 29.4092 135.78 28.7012C136.188 27.9812 136.74 27.4112 137.436 26.9912C138.132 26.5592 138.906 26.3432 139.758 26.3432C140.61 26.3432 141.366 26.5592 142.026 26.9912C142.686 27.4112 143.208 27.9872 143.592 28.7192C143.988 29.4392 144.186 30.2552 144.186 31.1672V31.6712H136.968C137.064 32.1752 137.25 32.6252 137.526 33.0212C137.814 33.4172 138.174 33.7292 138.606 33.9572C139.05 34.1852 139.53 34.2992 140.046 34.2992C140.49 34.2992 140.916 34.2332 141.324 34.1012C141.744 33.9572 142.092 33.7532 142.368 33.4892L143.52 34.6232C142.98 35.0312 142.422 35.3372 141.846 35.5412C141.282 35.7332 140.658 35.8292 139.974 35.8292ZM136.986 30.3212H142.404C142.332 29.8412 142.164 29.4212 141.9 29.0612C141.648 28.6892 141.33 28.4012 140.946 28.1972C140.574 27.9812 140.166 27.8732 139.722 27.8732C139.266 27.8732 138.846 27.9752 138.462 28.1792C138.078 28.3832 137.754 28.6712 137.49 29.0432C137.238 29.4032 137.07 29.8292 136.986 30.3212ZM149.741 35.8292C148.853 35.8292 148.175 35.6252 147.707 35.2172C147.239 34.7972 147.005 34.1912 147.005 33.3992V28.0172H145.061V26.5052H147.005V24.1652L148.787 23.7332V26.5052H151.487V28.0172H148.787V32.9852C148.787 33.4532 148.889 33.7892 149.093 33.9932C149.309 34.1852 149.657 34.2812 150.137 34.2812C150.389 34.2812 150.611 34.2632 150.803 34.2272C151.007 34.1912 151.223 34.1372 151.451 34.0652V35.5772C151.211 35.6612 150.929 35.7212 150.605 35.7572C150.293 35.8052 150.005 35.8292 149.741 35.8292ZM161.416 35.8472C160.408 35.8472 159.436 35.6492 158.5 35.2532C157.564 34.8572 156.736 34.2992 156.016 33.5792L157.168 32.2472C157.852 32.9192 158.548 33.4172 159.256 33.7412C159.976 34.0652 160.726 34.2272 161.506 34.2272C162.118 34.2272 162.652 34.1432 163.108 33.9752C163.576 33.7952 163.936 33.5432 164.188 33.2192C164.44 32.8952 164.566 32.5292 164.566 32.1212C164.566 31.5572 164.368 31.1252 163.972 30.8252C163.576 30.5252 162.922 30.2972 162.01 30.1412L159.904 29.7992C158.752 29.5952 157.888 29.2232 157.312 28.6832C156.748 28.1432 156.466 27.4232 156.466 26.5232C156.466 25.8032 156.658 25.1732 157.042 24.6332C157.426 24.0812 157.966 23.6552 158.662 23.3552C159.37 23.0552 160.186 22.9052 161.11 22.9052C162.022 22.9052 162.916 23.0552 163.792 23.3552C164.68 23.6432 165.478 24.0632 166.186 24.6152L165.142 26.0552C163.786 25.0232 162.412 24.5072 161.02 24.5072C160.468 24.5072 159.988 24.5852 159.58 24.7412C159.172 24.8972 158.854 25.1192 158.626 25.4072C158.398 25.6832 158.284 26.0072 158.284 26.3792C158.284 26.8952 158.458 27.2912 158.806 27.5672C159.154 27.8312 159.73 28.0232 160.534 28.1432L162.568 28.4852C163.9 28.7012 164.878 29.0912 165.502 29.6552C166.126 30.2192 166.438 30.9932 166.438 31.9772C166.438 32.7452 166.228 33.4232 165.808 34.0112C165.388 34.5872 164.8 35.0372 164.044 35.3612C163.288 35.6852 162.412 35.8472 161.416 35.8472ZM171.814 35.8292C170.926 35.8292 170.248 35.6252 169.78 35.2172C169.312 34.7972 169.078 34.1912 169.078 33.3992V28.0172H167.134V26.5052H169.078V24.1652L170.86 23.7332V26.5052H173.56V28.0172H170.86V32.9852C170.86 33.4532 170.962 33.7892 171.166 33.9932C171.382 34.1852 171.73 34.2812 172.21 34.2812C172.462 34.2812 172.684 34.2632 172.876 34.2272C173.08 34.1912 173.296 34.1372 173.524 34.0652V35.5772C173.284 35.6612 173.002 35.7212 172.678 35.7572C172.366 35.8052 172.078 35.8292 171.814 35.8292ZM177.964 35.8292C177.304 35.8292 176.722 35.7152 176.218 35.4872C175.714 35.2472 175.318 34.9172 175.03 34.4972C174.742 34.0772 174.598 33.5912 174.598 33.0392C174.598 32.1752 174.928 31.4972 175.588 31.0052C176.248 30.5012 177.154 30.2492 178.306 30.2492C179.206 30.2492 180.04 30.4232 180.808 30.7712V29.7992C180.808 29.1392 180.616 28.6472 180.232 28.3232C179.86 27.9992 179.308 27.8372 178.576 27.8372C178.156 27.8372 177.718 27.9032 177.262 28.0352C176.806 28.1552 176.296 28.3472 175.732 28.6112L175.066 27.2612C175.762 26.9372 176.41 26.7032 177.01 26.5592C177.61 26.4032 178.216 26.3252 178.828 26.3252C180.016 26.3252 180.934 26.6072 181.582 27.1712C182.242 27.7352 182.572 28.5392 182.572 29.5832V35.6672H180.808V34.8752C180.4 35.1992 179.962 35.4392 179.494 35.5952C179.026 35.7512 178.516 35.8292 177.964 35.8292ZM176.326 33.0032C176.326 33.4472 176.512 33.8072 176.884 34.0832C177.268 34.3472 177.766 34.4792 178.378 34.4792C178.858 34.4792 179.296 34.4132 179.692 34.2812C180.1 34.1372 180.472 33.9152 180.808 33.6152V32.0672C180.46 31.8632 180.094 31.7192 179.71 31.6352C179.338 31.5392 178.918 31.4912 178.45 31.4912C177.79 31.4912 177.268 31.6292 176.884 31.9052C176.512 32.1692 176.326 32.5352 176.326 33.0032ZM184.826 35.6672V26.5052H186.626V27.6752C186.914 27.2432 187.268 26.9072 187.688 26.6672C188.12 26.4152 188.606 26.2892 189.146 26.2892C189.518 26.3012 189.824 26.3552 190.064 26.4512V28.0712C189.896 27.9992 189.722 27.9512 189.542 27.9272C189.362 27.8912 189.182 27.8732 189.002 27.8732C188.474 27.8732 188.006 28.0172 187.598 28.3052C187.19 28.5812 186.866 28.9892 186.626 29.5292V35.6672H184.826ZM195.61 35.8292C194.722 35.8292 194.044 35.6252 193.576 35.2172C193.108 34.7972 192.874 34.1912 192.874 33.3992V28.0172H190.93V26.5052H192.874V24.1652L194.656 23.7332V26.5052H197.356V28.0172H194.656V32.9852C194.656 33.4532 194.758 33.7892 194.962 33.9932C195.178 34.1852 195.526 34.2812 196.006 34.2812C196.258 34.2812 196.48 34.2632 196.672 34.2272C196.876 34.1912 197.092 34.1372 197.32 34.0652V35.5772C197.08 35.6612 196.798 35.7212 196.474 35.7572C196.162 35.8052 195.874 35.8292 195.61 35.8292ZM203.113 35.8292C202.213 35.8292 201.397 35.6192 200.665 35.1992C199.945 34.7792 199.369 34.2092 198.937 33.4892C198.517 32.7692 198.307 31.9652 198.307 31.0772C198.307 30.2012 198.511 29.4092 198.919 28.7012C199.327 27.9812 199.879 27.4112 200.575 26.9912C201.271 26.5592 202.045 26.3432 202.897 26.3432C203.749 26.3432 204.505 26.5592 205.165 26.9912C205.825 27.4112 206.347 27.9872 206.731 28.7192C207.127 29.4392 207.325 30.2552 207.325 31.1672V31.6712H200.107C200.203 32.1752 200.389 32.6252 200.665 33.0212C200.953 33.4172 201.313 33.7292 201.745 33.9572C202.189 34.1852 202.669 34.2992 203.185 34.2992C203.629 34.2992 204.055 34.2332 204.463 34.1012C204.883 33.9572 205.231 33.7532 205.507 33.4892L206.659 34.6232C206.119 35.0312 205.561 35.3372 204.985 35.5412C204.421 35.7332 203.797 35.8292 203.113 35.8292ZM200.125 30.3212H205.543C205.471 29.8412 205.303 29.4212 205.039 29.0612C204.787 28.6892 204.469 28.4012 204.085 28.1972C203.713 27.9812 203.305 27.8732 202.861 27.8732C202.405 27.8732 201.985 27.9752 201.601 28.1792C201.217 28.3832 200.893 28.6712 200.629 29.0432C200.377 29.4032 200.209 29.8292 200.125 30.3212ZM213.467 35.8112C212.615 35.8112 211.835 35.6012 211.127 35.1812C210.419 34.7612 209.861 34.1972 209.453 33.4892C209.045 32.7692 208.841 31.9652 208.841 31.0772C208.841 30.1892 209.045 29.3912 209.453 28.6832C209.873 27.9752 210.437 27.4112 211.145 26.9912C211.853 26.5712 212.639 26.3612 213.503 26.3612C214.007 26.3612 214.493 26.4392 214.961 26.5952C215.429 26.7512 215.861 26.9792 216.257 27.2792V23.0672L218.057 22.7252V35.6672H216.275V34.7852C215.495 35.4692 214.559 35.8112 213.467 35.8112ZM213.701 34.2452C214.229 34.2452 214.709 34.1492 215.141 33.9572C215.585 33.7652 215.957 33.4892 216.257 33.1292V29.0072C215.957 28.6712 215.585 28.4072 215.141 28.2152C214.709 28.0112 214.229 27.9092 213.701 27.9092C213.125 27.9092 212.603 28.0472 212.135 28.3232C211.667 28.5992 211.295 28.9772 211.019 29.4572C210.743 29.9252 210.605 30.4592 210.605 31.0592C210.605 31.6592 210.743 32.1992 211.019 32.6792C211.295 33.1592 211.667 33.5432 212.135 33.8312C212.603 34.1072 213.125 34.2452 213.701 34.2452Z" fill="black"/>
</g>
<defs>
<filter id="filter0_i_17_421" x="0.119141" y="0.667236" width="340" height="58" filterUnits="userSpaceOnUse" color-interpolation-filters="sRGB">
<feFlood flood-opacity="0" result="BackgroundImageFix"/>
<feBlend mode="normal" in="SourceGraphic" in2="BackgroundImageFix" result="shape"/>
<feColorMatrix in="SourceAlpha" type="matrix" values="0 0 0 0 0 0 0 0 0 0 0 0 0 0 0 0 0 0 127 0" result="hardAlpha"/>
<feMorphology radius="4" operator="erode" in="SourceAlpha" result="effect1_innerShadow_17_421"/>
<feOffset/>
<feGaussianBlur stdDeviation="7.4"/>
<feComposite in2="hardAlpha" operator="arithmetic" k2="-1" k3="1"/>
<feColorMatrix type="matrix" values="0 0 0 0 0.276555 0 0 0 0 0.102163 0 0 0 0 0.00119975 0 0 0 0.46 0"/>
<feBlend mode="normal" in2="shape" result="effect1_innerShadow_17_421"/>
</filter>
</defs>
</svg>
