<svg width="53" height="50" viewBox="0 0 53 50" fill="none" xmlns="http://www.w3.org/2000/svg">
<path d="M8.94083 0.242325C8.92062 0.373672 8.82969 0.858646 8.74886 1.33352C8.66803 1.80839 7.91026 6.08224 7.07165 10.831C6.23305 15.5797 4.36388 26.1481 2.92916 34.3219C1.48434 42.4857 0.282001 49.2754 0.25169 49.3966L0.201172 49.629H16.4478C34.6142 49.629 33.8766 49.6593 36.8774 48.9116C40.5552 48.0023 43.2629 46.5171 45.516 44.1629C47.8197 41.7582 49.2746 38.5251 49.8707 34.4735C50.0627 33.1499 50.0122 30.9978 49.7697 29.7652C49.4363 28.1183 48.6785 26.2895 47.7186 24.8447C47.0821 23.895 45.4958 22.2986 44.6269 21.7429C44.2531 21.5004 43.9601 21.2983 43.9702 21.2781C43.9904 21.268 44.5057 20.975 45.1119 20.6315C49.315 18.247 51.2549 15.903 52.2047 12.0737C52.5381 10.7198 52.5684 8.85064 52.2956 7.54727C51.5883 4.30399 49.2039 1.77808 45.799 0.676781C43.8287 0.0402527 45.1725 0.0907707 26.2484 0.0503578L9.00145 0.0099411L8.94083 0.242325ZM33.3007 1.71746C33.4725 1.8286 33.6443 2.20243 33.6443 2.47523C33.6443 2.60658 33.0077 4.80918 32.2398 7.3553C31.4619 9.90142 30.1888 14.0843 29.4209 16.6406L28.0064 21.2882L33.2401 21.3388C38.8072 21.3893 38.7971 21.3893 38.7971 21.8844C38.7971 22.1774 38.6052 22.4502 37.3826 23.8849C34.3616 27.411 26.9556 36.666 20.4893 44.9712C19.6507 46.0523 18.8727 47.0222 18.7717 47.1233C18.408 47.487 17.6906 47.3051 17.539 46.8202C17.5087 46.7191 17.9533 45.0722 18.5292 43.1626C20.6712 36.0598 23.3385 27.1888 23.3385 27.1484C23.3385 27.118 21.1561 27.0978 18.4888 27.0978C13.3662 27.0978 13.1642 27.0776 12.9924 26.6432C12.8206 26.1986 12.9722 25.9561 14.6292 23.895C15.5587 22.7432 19.5295 17.8126 23.4396 12.9527C27.3497 8.09286 30.9567 3.60684 31.4518 3.00062C31.9468 2.3843 32.452 1.8387 32.5632 1.76798C32.8158 1.62653 33.1391 1.60632 33.3007 1.71746Z" fill="white"/>
</svg>
