<svg width="355" height="372" viewBox="0 0 355 372" fill="none" xmlns="http://www.w3.org/2000/svg">
<g clip-path="url(#clip0_63_848)">
<rect y="67.2668" width="67" height="355" rx="10" transform="rotate(-90 0 67.2668)" fill="white" fill-opacity="0.3"/>
<g clip-path="url(#clip1_63_848)">
<rect x="11" y="9.45874" width="50" height="49" rx="10" fill="white" fill-opacity="0.12"/>
<rect x="11.5" y="9.45874" width="49" height="49" fill="#FC4C02"/>
<path d="M36.22 23.9587H35.78C35.2496 23.9587 34.7409 24.1695 34.3658 24.5445C33.9907 24.9196 33.78 25.4283 33.78 25.9587V26.1387C33.7796 26.4895 33.6871 26.8339 33.5115 27.1376C33.336 27.4412 33.0837 27.6934 32.78 27.8687L32.35 28.1187C32.046 28.2943 31.7011 28.3867 31.35 28.3867C30.9989 28.3867 30.654 28.2943 30.35 28.1187L30.2 28.0387C29.7411 27.774 29.1958 27.7022 28.684 27.839C28.1722 27.9759 27.7356 28.3103 27.47 28.7687L27.25 29.1487C26.9853 29.6077 26.9134 30.1529 27.0503 30.6647C27.1872 31.1766 27.5215 31.6132 27.98 31.8787L28.13 31.9787C28.4323 32.1533 28.6836 32.4038 28.8591 32.7056C29.0345 33.0073 29.1279 33.3497 29.13 33.6987V34.2087C29.1314 34.5612 29.0397 34.9077 28.864 35.2132C28.6884 35.5188 28.4352 35.7725 28.13 35.9487L27.98 36.0387C27.5215 36.3043 27.1872 36.7409 27.0503 37.2527C26.9134 37.7646 26.9853 38.3098 27.25 38.7687L27.47 39.1487C27.7356 39.6072 28.1722 39.9416 28.684 40.0784C29.1958 40.2153 29.7411 40.1435 30.2 39.8787L30.35 39.7987C30.654 39.6232 30.9989 39.5308 31.35 39.5308C31.7011 39.5308 32.046 39.6232 32.35 39.7987L32.78 40.0487C33.0837 40.2241 33.336 40.4763 33.5115 40.7799C33.6871 41.0836 33.7796 41.428 33.78 41.7787V41.9587C33.78 42.4892 33.9907 42.9979 34.3658 43.373C34.7409 43.748 35.2496 43.9587 35.78 43.9587H36.22C36.7504 43.9587 37.2591 43.748 37.6342 43.373C38.0093 42.9979 38.22 42.4892 38.22 41.9587V41.7787C38.2204 41.428 38.3129 41.0836 38.4885 40.7799C38.664 40.4763 38.9163 40.2241 39.22 40.0487L39.65 39.7987C39.954 39.6232 40.2989 39.5308 40.65 39.5308C41.0011 39.5308 41.346 39.6232 41.65 39.7987L41.8 39.8787C42.2589 40.1435 42.8042 40.2153 43.316 40.0784C43.8278 39.9416 44.2645 39.6072 44.53 39.1487L44.75 38.7587C45.0147 38.2998 45.0866 37.7546 44.9497 37.2427C44.8128 36.7309 44.4785 36.2943 44.02 36.0287L43.87 35.9487C43.5648 35.7725 43.3116 35.5188 43.136 35.2132C42.9604 34.9077 42.8686 34.5612 42.87 34.2087V33.7087C42.8686 33.3563 42.9604 33.0098 43.136 32.7042C43.3116 32.3987 43.5648 32.1449 43.87 31.9687L44.02 31.8787C44.4785 31.6132 44.8128 31.1766 44.9497 30.6647C45.0866 30.1529 45.0147 29.6077 44.75 29.1487L44.53 28.7687C44.2645 28.3103 43.8278 27.9759 43.316 27.839C42.8042 27.7022 42.2589 27.774 41.8 28.0387L41.65 28.1187C41.346 28.2943 41.0011 28.3867 40.65 28.3867C40.2989 28.3867 39.954 28.2943 39.65 28.1187L39.22 27.8687C38.9163 27.6934 38.664 27.4412 38.4885 27.1376C38.3129 26.8339 38.2204 26.4895 38.22 26.1387V25.9587C38.22 25.4283 38.0093 24.9196 37.6342 24.5445C37.2591 24.1695 36.7504 23.9587 36.22 23.9587Z" stroke="white" stroke-width="2" stroke-linecap="round" stroke-linejoin="round"/>
<path d="M36 36.9587C37.6569 36.9587 39 35.6156 39 33.9587C39 32.3019 37.6569 30.9587 36 30.9587C34.3431 30.9587 33 32.3019 33 33.9587C33 35.6156 34.3431 36.9587 36 36.9587Z" stroke="white" stroke-width="2" stroke-linecap="round" stroke-linejoin="round"/>
</g>
<path d="M80.625 30.6873C80.5644 30.1494 80.3144 29.7328 79.875 29.4373C79.4356 29.1381 78.8826 28.9884 78.2159 28.9884C77.7386 28.9884 77.3258 29.0642 76.9773 29.2157C76.6288 29.3634 76.358 29.568 76.1648 29.8293C75.9754 30.0869 75.8807 30.3805 75.8807 30.71C75.8807 30.9865 75.9451 31.2252 76.0739 31.4259C76.2064 31.6267 76.3788 31.7953 76.5909 31.9316C76.8068 32.0642 77.0379 32.1759 77.2841 32.2668C77.5303 32.354 77.767 32.4259 77.9943 32.4828L79.1307 32.7782C79.5019 32.8691 79.8826 32.9922 80.2727 33.1475C80.6629 33.3028 81.0246 33.5074 81.358 33.7612C81.6913 34.015 81.9602 34.3293 82.1648 34.7043C82.3731 35.0793 82.4773 35.5282 82.4773 36.0509C82.4773 36.71 82.3068 37.2953 81.9659 37.8066C81.6288 38.318 81.1383 38.7214 80.4943 39.0168C79.8542 39.3123 79.0795 39.46 78.1705 39.46C77.2992 39.46 76.5455 39.3218 75.9091 39.0453C75.2727 38.7687 74.7746 38.3767 74.4148 37.8691C74.0549 37.3578 73.8561 36.7517 73.8182 36.0509H75.5795C75.6136 36.4714 75.75 36.8218 75.9886 37.1021C76.2311 37.3786 76.5398 37.585 76.9148 37.7214C77.2936 37.854 77.7083 37.9203 78.1591 37.9203C78.6553 37.9203 79.0966 37.8426 79.483 37.6873C79.8731 37.5282 80.1799 37.3085 80.4034 37.0282C80.6269 36.7441 80.7386 36.4127 80.7386 36.0339C80.7386 35.6892 80.6402 35.407 80.4432 35.1873C80.25 34.9676 79.9867 34.7858 79.6534 34.6418C79.3239 34.4979 78.9508 34.371 78.5341 34.2612L77.1591 33.8862C76.2273 33.6324 75.4886 33.2593 74.9432 32.7668C74.4015 32.2744 74.1307 31.6229 74.1307 30.8123C74.1307 30.1418 74.3125 29.5566 74.6761 29.0566C75.0398 28.5566 75.5322 28.1684 76.1534 27.8918C76.7746 27.6115 77.4754 27.4714 78.2557 27.4714C79.0436 27.4714 79.7386 27.6096 80.3409 27.8862C80.947 28.1627 81.4242 28.5434 81.7727 29.0282C82.1212 29.5093 82.303 30.0623 82.3182 30.6873H80.625ZM87.5603 39.443C86.7004 39.443 85.9599 39.2593 85.3387 38.8918C84.7213 38.5206 84.244 37.9998 83.9069 37.3293C83.5735 36.6551 83.4069 35.8653 83.4069 34.96C83.4069 34.0661 83.5735 33.2782 83.9069 32.5964C84.244 31.9146 84.7137 31.3824 85.316 30.9998C85.922 30.6172 86.6304 30.4259 87.441 30.4259C87.9334 30.4259 88.4107 30.5074 88.8728 30.6703C89.3349 30.8331 89.7497 31.0888 90.1171 31.4373C90.4845 31.7858 90.7743 32.2384 90.9864 32.7953C91.1985 33.3483 91.3046 34.0206 91.3046 34.8123V35.4146H84.3671V34.1418H89.6398C89.6398 33.6949 89.5489 33.299 89.3671 32.9543C89.1853 32.6059 88.9296 32.3312 88.6001 32.1305C88.2743 31.9297 87.8917 31.8293 87.4523 31.8293C86.9751 31.8293 86.5584 31.9468 86.2023 32.1816C85.8501 32.4127 85.5773 32.7157 85.3841 33.0907C85.1948 33.4619 85.1001 33.8653 85.1001 34.3009V35.2953C85.1001 35.8786 85.2023 36.3748 85.4069 36.7839C85.6152 37.193 85.905 37.5055 86.2762 37.7214C86.6474 37.9335 87.0811 38.0396 87.5773 38.0396C87.8993 38.0396 88.1929 37.9941 88.458 37.9032C88.7232 37.8085 88.9523 37.6684 89.1455 37.4828C89.3387 37.2971 89.4864 37.068 89.5887 36.7953L91.1966 37.085C91.0679 37.5585 90.8368 37.9733 90.5035 38.3293C90.1739 38.6816 89.7591 38.9562 89.2591 39.1532C88.7629 39.3464 88.1966 39.443 87.5603 39.443ZM96.6234 30.5396V31.9032H91.8564V30.5396H96.6234ZM93.1348 28.4487H94.8336V36.7043C94.8336 37.0339 94.8829 37.282 94.9814 37.4487C95.0798 37.6115 95.2067 37.7233 95.362 37.7839C95.5211 37.8407 95.6935 37.8691 95.8791 37.8691C96.0155 37.8691 96.1348 37.8596 96.237 37.8407C96.3393 37.8218 96.4189 37.8066 96.4757 37.7953L96.7825 39.1987C96.684 39.2365 96.5439 39.2744 96.362 39.3123C96.1802 39.354 95.953 39.3767 95.6802 39.3805C95.2333 39.3881 94.8166 39.3085 94.4302 39.1418C94.0439 38.9752 93.7314 38.7176 93.4927 38.3691C93.2541 38.0206 93.1348 37.5831 93.1348 37.0566V28.4487ZM101.937 30.5396V31.9032H97.1695V30.5396H101.937ZM98.4479 28.4487H100.147V36.7043C100.147 37.0339 100.196 37.282 100.294 37.4487C100.393 37.6115 100.52 37.7233 100.675 37.7839C100.834 37.8407 101.007 37.8691 101.192 37.8691C101.329 37.8691 101.448 37.8596 101.55 37.8407C101.652 37.8218 101.732 37.8066 101.789 37.7953L102.096 39.1987C101.997 39.2365 101.857 39.2744 101.675 39.3123C101.493 39.354 101.266 39.3767 100.993 39.3805C100.546 39.3881 100.13 39.3085 99.7434 39.1418C99.357 38.9752 99.0445 38.7176 98.8059 38.3691C98.5672 38.0206 98.4479 37.5831 98.4479 37.0566V28.4487ZM103.176 39.2668V30.5396H104.875V39.2668H103.176ZM104.034 29.193C103.738 29.193 103.485 29.0945 103.272 28.8975C103.064 28.6968 102.96 28.4581 102.96 28.1816C102.96 27.9013 103.064 27.6627 103.272 27.4657C103.485 27.265 103.738 27.1646 104.034 27.1646C104.329 27.1646 104.581 27.265 104.789 27.4657C105.002 27.6627 105.108 27.9013 105.108 28.1816C105.108 28.4581 105.002 28.6968 104.789 28.8975C104.581 29.0945 104.329 29.193 104.034 29.193ZM108.219 34.085V39.2668H106.52V30.5396H108.151V31.96H108.259C108.46 31.4979 108.774 31.1267 109.202 30.8464C109.634 30.5661 110.177 30.4259 110.833 30.4259C111.427 30.4259 111.948 30.5509 112.395 30.8009C112.842 31.0471 113.189 31.4146 113.435 31.9032C113.681 32.3918 113.804 32.996 113.804 33.7157V39.2668H112.105V33.9203C112.105 33.2877 111.941 32.7934 111.611 32.4373C111.282 32.0775 110.829 31.8975 110.253 31.8975C109.859 31.8975 109.509 31.9828 109.202 32.1532C108.899 32.3237 108.658 32.5737 108.48 32.9032C108.306 33.229 108.219 33.6229 108.219 34.085ZM119.102 42.7214C118.409 42.7214 117.812 42.6305 117.312 42.4487C116.816 42.2668 116.41 42.0263 116.096 41.7271C115.782 41.4278 115.547 41.1002 115.392 40.7441L116.852 40.1418C116.954 40.3085 117.09 40.4846 117.261 40.6703C117.435 40.8596 117.67 41.0206 117.965 41.1532C118.265 41.2858 118.649 41.3521 119.119 41.3521C119.763 41.3521 120.295 41.1949 120.715 40.8805C121.136 40.5699 121.346 40.0737 121.346 39.3918V37.6759H121.238C121.136 37.8615 120.988 38.068 120.795 38.2953C120.606 38.5225 120.344 38.7195 120.011 38.8862C119.678 39.0528 119.244 39.1362 118.71 39.1362C118.02 39.1362 117.399 38.9752 116.846 38.6532C116.297 38.3275 115.861 37.8483 115.539 37.2157C115.221 36.5793 115.062 35.7971 115.062 34.8691C115.062 33.9411 115.219 33.1456 115.534 32.4828C115.852 31.8199 116.287 31.3123 116.84 30.96C117.393 30.604 118.02 30.4259 118.721 30.4259C119.263 30.4259 119.7 30.5168 120.034 30.6987C120.367 30.8767 120.626 31.085 120.812 31.3237C121.001 31.5623 121.147 31.7725 121.249 31.9543H121.374V30.5396H123.039V39.46C123.039 40.21 122.865 40.8256 122.517 41.3066C122.168 41.7877 121.696 42.1437 121.102 42.3748C120.511 42.6059 119.844 42.7214 119.102 42.7214ZM119.085 37.7271C119.573 37.7271 119.986 37.6134 120.323 37.3862C120.664 37.1551 120.922 36.8256 121.096 36.3975C121.274 35.9657 121.363 35.4487 121.363 34.8464C121.363 34.2593 121.276 33.7422 121.102 33.2953C120.928 32.8483 120.672 32.4998 120.335 32.2498C119.998 31.996 119.581 31.8691 119.085 31.8691C118.573 31.8691 118.147 32.0017 117.806 32.2668C117.465 32.5282 117.208 32.8843 117.034 33.335C116.863 33.7858 116.778 34.2896 116.778 34.8464C116.778 35.4184 116.865 35.9203 117.039 36.3521C117.214 36.7839 117.471 37.121 117.812 37.3634C118.157 37.6059 118.581 37.7271 119.085 37.7271ZM131.217 32.6703L129.678 32.943C129.613 32.746 129.511 32.5585 129.371 32.3805C129.234 32.2025 129.049 32.0566 128.814 31.943C128.579 31.8293 128.286 31.7725 127.933 31.7725C127.452 31.7725 127.051 31.8805 126.729 32.0964C126.407 32.3085 126.246 32.5831 126.246 32.9203C126.246 33.2119 126.354 33.4468 126.57 33.6248C126.786 33.8028 127.134 33.9487 127.615 34.0623L129.002 34.3805C129.805 34.5661 130.403 34.8521 130.797 35.2384C131.191 35.6248 131.388 36.1267 131.388 36.7441C131.388 37.2668 131.236 37.7328 130.933 38.1418C130.634 38.5471 130.216 38.8653 129.678 39.0964C129.144 39.3275 128.524 39.443 127.82 39.443C126.842 39.443 126.045 39.2346 125.428 38.818C124.81 38.3975 124.431 37.8009 124.291 37.0282L125.933 36.7782C126.036 37.2062 126.246 37.5301 126.564 37.7498C126.882 37.9657 127.297 38.0737 127.808 38.0737C128.365 38.0737 128.81 37.9581 129.144 37.7271C129.477 37.4922 129.644 37.2062 129.644 36.8691C129.644 36.5964 129.541 36.3672 129.337 36.1816C129.136 35.996 128.827 35.8559 128.411 35.7612L126.933 35.4373C126.119 35.2517 125.517 34.9562 125.127 34.5509C124.74 34.1456 124.547 33.6324 124.547 33.0112C124.547 32.496 124.691 32.0453 124.979 31.6589C125.267 31.2725 125.664 30.9714 126.172 30.7555C126.68 30.5358 127.261 30.4259 127.916 30.4259C128.859 30.4259 129.602 30.6305 130.144 31.0396C130.685 31.4449 131.043 31.9884 131.217 32.6703Z" fill="#696F79"/>
</g>
<rect x="0.5" y="66.7668" width="66" height="354" rx="9.5" transform="rotate(-90 0.5 66.7668)" stroke="white" stroke-opacity="0.17"/>
<g clip-path="url(#clip2_63_848)">
<rect y="143.267" width="67" height="355" rx="10" transform="rotate(-90 0 143.267)" fill="white" fill-opacity="0.3"/>
<g clip-path="url(#clip3_63_848)">
<rect x="11" y="85.4587" width="50" height="49" rx="10" fill="white" fill-opacity="0.12"/>
<rect x="11.5" y="85.4587" width="49" height="49" fill="#FC4C02"/>
<path d="M41.9995 105.959H40.9995V103.959C40.9995 101.199 38.7595 98.9587 35.9995 98.9587C33.2395 98.9587 30.9995 101.199 30.9995 103.959V105.959H29.9995C28.8995 105.959 27.9995 106.859 27.9995 107.959V117.959C27.9995 119.059 28.8995 119.959 29.9995 119.959H41.9995C43.0995 119.959 43.9995 119.059 43.9995 117.959V107.959C43.9995 106.859 43.0995 105.959 41.9995 105.959ZM32.9995 103.959C32.9995 102.299 34.3395 100.959 35.9995 100.959C37.6595 100.959 38.9995 102.299 38.9995 103.959V105.959H32.9995V103.959ZM41.9995 117.959H29.9995V107.959H41.9995V117.959ZM35.9995 114.959C37.0995 114.959 37.9995 114.059 37.9995 112.959C37.9995 111.859 37.0995 110.959 35.9995 110.959C34.8995 110.959 33.9995 111.859 33.9995 112.959C33.9995 114.059 34.8995 114.959 35.9995 114.959Z" fill="white"/>
</g>
<path d="M74.2784 115.267V103.63H78.4261C79.3314 103.63 80.0814 103.795 80.6761 104.125C81.2708 104.454 81.7159 104.905 82.0114 105.477C82.3068 106.045 82.4545 106.685 82.4545 107.398C82.4545 108.113 82.3049 108.757 82.0057 109.329C81.7102 109.898 81.2633 110.348 80.6648 110.682C80.0701 111.011 79.322 111.176 78.4205 111.176H75.5682V109.687H78.2614C78.8333 109.687 79.2973 109.589 79.6534 109.392C80.0095 109.191 80.2708 108.918 80.4375 108.574C80.6042 108.229 80.6875 107.837 80.6875 107.398C80.6875 106.958 80.6042 106.568 80.4375 106.227C80.2708 105.886 80.0076 105.619 79.6477 105.426C79.2917 105.233 78.822 105.136 78.2386 105.136H76.0341V115.267H74.2784ZM83.7364 115.267V106.54H85.3785V107.926H85.4694C85.6285 107.456 85.9088 107.087 86.3103 106.818C86.7156 106.545 87.1739 106.409 87.6853 106.409C87.7913 106.409 87.9163 106.413 88.0603 106.42C88.208 106.428 88.3235 106.437 88.4069 106.449V108.074C88.3387 108.055 88.2175 108.034 88.0432 108.011C87.869 107.985 87.6948 107.971 87.5205 107.971C87.119 107.971 86.761 108.057 86.4466 108.227C86.136 108.394 85.8898 108.627 85.708 108.926C85.5262 109.221 85.4353 109.559 85.4353 109.937V115.267H83.7364ZM89.237 115.267V106.54H90.9359V115.267H89.237ZM90.095 105.193C89.7995 105.193 89.5458 105.094 89.3336 104.898C89.1253 104.697 89.0211 104.458 89.0211 104.182C89.0211 103.901 89.1253 103.663 89.3336 103.466C89.5458 103.265 89.7995 103.165 90.095 103.165C90.3905 103.165 90.6423 103.265 90.8507 103.466C91.0628 103.663 91.1689 103.901 91.1689 104.182C91.1689 104.458 91.0628 104.697 90.8507 104.898C90.6423 105.094 90.3905 105.193 90.095 105.193ZM100.047 106.54L96.8826 115.267H95.0644L91.8939 106.54H93.7178L95.928 113.255H96.0189L98.2235 106.54H100.047ZM103.294 115.46C102.741 115.46 102.241 115.358 101.794 115.153C101.347 114.945 100.993 114.644 100.731 114.25C100.474 113.856 100.345 113.373 100.345 112.801C100.345 112.309 100.44 111.903 100.629 111.585C100.818 111.267 101.074 111.015 101.396 110.829C101.718 110.644 102.078 110.504 102.476 110.409C102.873 110.314 103.279 110.242 103.691 110.193C104.214 110.132 104.638 110.083 104.964 110.045C105.29 110.004 105.527 109.937 105.674 109.846C105.822 109.755 105.896 109.608 105.896 109.403V109.363C105.896 108.867 105.756 108.483 105.476 108.21C105.199 107.937 104.786 107.801 104.237 107.801C103.665 107.801 103.214 107.928 102.885 108.182C102.559 108.432 102.333 108.71 102.208 109.017L100.612 108.653C100.801 108.123 101.078 107.695 101.441 107.369C101.809 107.04 102.231 106.801 102.708 106.653C103.186 106.502 103.688 106.426 104.214 106.426C104.563 106.426 104.932 106.468 105.322 106.551C105.716 106.63 106.083 106.778 106.424 106.994C106.769 107.21 107.051 107.519 107.271 107.92C107.491 108.318 107.601 108.835 107.601 109.471V115.267H105.941V114.074H105.873C105.763 114.293 105.599 114.509 105.379 114.721C105.159 114.934 104.877 115.11 104.532 115.25C104.188 115.39 103.775 115.46 103.294 115.46ZM103.663 114.096C104.133 114.096 104.534 114.004 104.868 113.818C105.205 113.632 105.46 113.39 105.635 113.091C105.813 112.788 105.902 112.464 105.902 112.119V110.994C105.841 111.055 105.724 111.112 105.549 111.165C105.379 111.214 105.184 111.257 104.964 111.295C104.744 111.329 104.53 111.362 104.322 111.392C104.114 111.418 103.94 111.441 103.799 111.46C103.47 111.502 103.169 111.572 102.896 111.67C102.627 111.769 102.411 111.911 102.248 112.096C102.089 112.278 102.01 112.521 102.01 112.824C102.01 113.244 102.165 113.562 102.476 113.778C102.786 113.99 103.182 114.096 103.663 114.096ZM112.899 115.443C112.055 115.443 111.327 115.252 110.718 114.869C110.112 114.483 109.646 113.951 109.32 113.273C108.994 112.594 108.831 111.818 108.831 110.943C108.831 110.057 108.998 109.274 109.331 108.596C109.665 107.915 110.134 107.382 110.74 107C111.346 106.617 112.06 106.426 112.882 106.426C113.545 106.426 114.136 106.549 114.655 106.795C115.174 107.038 115.593 107.379 115.911 107.818C116.233 108.257 116.424 108.771 116.485 109.358H114.831C114.74 108.949 114.532 108.596 114.206 108.301C113.884 108.005 113.452 107.858 112.911 107.858C112.437 107.858 112.023 107.983 111.666 108.233C111.314 108.479 111.04 108.831 110.843 109.29C110.646 109.744 110.547 110.282 110.547 110.903C110.547 111.54 110.644 112.089 110.837 112.551C111.03 113.013 111.303 113.371 111.655 113.625C112.011 113.879 112.43 114.005 112.911 114.005C113.233 114.005 113.524 113.947 113.786 113.829C114.051 113.708 114.273 113.536 114.451 113.312C114.632 113.089 114.759 112.82 114.831 112.505H116.485C116.424 113.07 116.24 113.574 115.934 114.017C115.627 114.46 115.216 114.809 114.701 115.062C114.189 115.316 113.589 115.443 112.899 115.443ZM118.735 118.54C118.481 118.54 118.25 118.519 118.042 118.477C117.834 118.439 117.678 118.398 117.576 118.352L117.985 116.96C118.296 117.043 118.572 117.079 118.815 117.068C119.057 117.057 119.271 116.966 119.457 116.795C119.646 116.625 119.813 116.346 119.957 115.96L120.167 115.38L116.974 106.54H118.792L121.002 113.312H121.093L123.303 106.54H125.127L121.531 116.432C121.364 116.886 121.152 117.271 120.894 117.585C120.637 117.903 120.33 118.142 119.974 118.301C119.618 118.46 119.205 118.54 118.735 118.54Z" fill="#696F79"/>
</g>
<rect x="0.5" y="142.767" width="66" height="354" rx="9.5" transform="rotate(-90 0.5 142.767)" stroke="white" stroke-opacity="0.17"/>
<g clip-path="url(#clip4_63_848)">
<rect y="219.267" width="67" height="355" rx="10" transform="rotate(-90 0 219.267)" fill="white" fill-opacity="0.3"/>
<g clip-path="url(#clip5_63_848)">
<rect x="11" y="161.459" width="50" height="49" rx="10" fill="white" fill-opacity="0.12"/>
<rect x="11.5" y="161.459" width="49" height="49" fill="#FC4C02"/>
<path d="M35 191.959H37V189.959H35V191.959ZM36 175.959C34.6868 175.959 33.3864 176.217 32.1732 176.72C30.9599 177.222 29.8575 177.959 28.9289 178.888C27.0536 180.763 26 183.307 26 185.959C26 188.611 27.0536 191.154 28.9289 193.03C29.8575 193.958 30.9599 194.695 32.1732 195.198C33.3864 195.7 34.6868 195.959 36 195.959C38.6522 195.959 41.1957 194.905 43.0711 193.03C44.9464 191.154 46 188.611 46 185.959C46 184.646 45.7413 183.345 45.2388 182.132C44.7363 180.919 43.9997 179.816 43.0711 178.888C42.1425 177.959 41.0401 177.222 39.8268 176.72C38.6136 176.217 37.3132 175.959 36 175.959ZM36 193.959C31.59 193.959 28 190.369 28 185.959C28 181.549 31.59 177.959 36 177.959C40.41 177.959 44 181.549 44 185.959C44 190.369 40.41 193.959 36 193.959ZM36 179.959C34.9391 179.959 33.9217 180.38 33.1716 181.13C32.4214 181.88 32 182.898 32 183.959H34C34 183.428 34.2107 182.92 34.5858 182.545C34.9609 182.169 35.4696 181.959 36 181.959C36.5304 181.959 37.0391 182.169 37.4142 182.545C37.7893 182.92 38 183.428 38 183.959C38 185.959 35 185.709 35 188.959H37C37 186.709 40 186.459 40 183.959C40 182.898 39.5786 181.88 38.8284 181.13C38.0783 180.38 37.0609 179.959 36 179.959Z" fill="white"/>
</g>
<path d="M74.2784 191.267V179.63H76.0341V184.687H81.8352V179.63H83.5966V191.267H81.8352V186.193H76.0341V191.267H74.2784ZM89.1384 191.443C88.2786 191.443 87.538 191.259 86.9168 190.892C86.2994 190.521 85.8221 190 85.485 189.329C85.1517 188.655 84.985 187.865 84.985 186.96C84.985 186.066 85.1517 185.278 85.485 184.596C85.8221 183.915 86.2918 183.382 86.8941 183C87.5002 182.617 88.2085 182.426 89.0191 182.426C89.5115 182.426 89.9888 182.507 90.4509 182.67C90.913 182.833 91.3278 183.089 91.6952 183.437C92.0627 183.786 92.3524 184.238 92.5645 184.795C92.7767 185.348 92.8827 186.021 92.8827 186.812V187.415H85.9452V186.142H91.218C91.218 185.695 91.127 185.299 90.9452 184.954C90.7634 184.606 90.5077 184.331 90.1782 184.13C89.8524 183.93 89.4698 183.829 89.0305 183.829C88.5532 183.829 88.1365 183.947 87.7805 184.182C87.4282 184.413 87.1555 184.716 86.9623 185.091C86.7729 185.462 86.6782 185.865 86.6782 186.301V187.295C86.6782 187.879 86.7805 188.375 86.985 188.784C87.1933 189.193 87.4831 189.505 87.8543 189.721C88.2255 189.934 88.6592 190.04 89.1555 190.04C89.4774 190.04 89.771 189.994 90.0361 189.903C90.3013 189.809 90.5305 189.668 90.7236 189.483C90.9168 189.297 91.0645 189.068 91.1668 188.795L92.7748 189.085C92.646 189.559 92.4149 189.973 92.0816 190.329C91.752 190.682 91.3373 190.956 90.8373 191.153C90.3411 191.346 89.7748 191.443 89.1384 191.443ZM95.8265 179.63V191.267H94.1277V179.63H95.8265ZM97.472 194.54V182.54H99.1311V183.954H99.2732C99.3717 183.773 99.5137 183.562 99.6993 183.324C99.8849 183.085 100.143 182.877 100.472 182.699C100.802 182.517 101.237 182.426 101.779 182.426C102.483 182.426 103.112 182.604 103.665 182.96C104.218 183.316 104.652 183.829 104.966 184.5C105.285 185.17 105.444 185.977 105.444 186.92C105.444 187.863 105.286 188.672 104.972 189.346C104.658 190.017 104.226 190.534 103.677 190.898C103.127 191.257 102.5 191.437 101.796 191.437C101.266 191.437 100.832 191.348 100.495 191.17C100.161 190.992 99.9001 190.784 99.7107 190.545C99.5213 190.307 99.3755 190.094 99.2732 189.909H99.1709V194.54H97.472ZM99.1368 186.903C99.1368 187.517 99.2258 188.055 99.4039 188.517C99.5819 188.979 99.8395 189.341 100.177 189.602C100.514 189.86 100.927 189.988 101.415 189.988C101.923 189.988 102.347 189.854 102.688 189.585C103.029 189.312 103.286 188.943 103.461 188.477C103.639 188.011 103.728 187.487 103.728 186.903C103.728 186.327 103.641 185.81 103.466 185.352C103.296 184.894 103.038 184.532 102.694 184.267C102.353 184.002 101.927 183.869 101.415 183.869C100.923 183.869 100.506 183.996 100.165 184.25C99.8281 184.504 99.5724 184.858 99.3982 185.312C99.2239 185.767 99.1368 186.297 99.1368 186.903ZM113.688 191.432C112.907 191.432 112.235 191.29 111.671 191.005C111.11 190.721 110.678 190.335 110.375 189.846C110.072 189.354 109.921 188.797 109.921 188.176C109.921 187.702 110.019 187.282 110.216 186.915C110.413 186.543 110.688 186.201 111.04 185.886C111.392 185.572 111.8 185.255 112.262 184.937L114.137 183.613C114.455 183.405 114.703 183.185 114.881 182.954C115.059 182.719 115.148 182.43 115.148 182.085C115.148 181.812 115.031 181.551 114.796 181.301C114.561 181.051 114.246 180.926 113.853 180.926C113.58 180.926 113.339 180.992 113.131 181.125C112.926 181.257 112.765 181.428 112.648 181.636C112.534 181.841 112.478 182.057 112.478 182.284C112.478 182.549 112.55 182.816 112.693 183.085C112.841 183.354 113.031 183.632 113.262 183.92C113.493 184.204 113.735 184.5 113.989 184.807L119.392 191.267H117.472L113 186.011C112.625 185.568 112.277 185.151 111.955 184.761C111.633 184.367 111.371 183.969 111.171 183.568C110.974 183.163 110.875 182.725 110.875 182.255C110.875 181.721 110.996 181.248 111.239 180.835C111.485 180.418 111.828 180.093 112.267 179.858C112.707 179.623 113.222 179.505 113.813 179.505C114.411 179.505 114.925 179.623 115.353 179.858C115.784 180.089 116.116 180.398 116.347 180.784C116.582 181.166 116.699 181.585 116.699 182.04C116.699 182.593 116.561 183.081 116.284 183.505C116.012 183.926 115.635 184.312 115.154 184.665L112.818 186.386C112.364 186.719 112.048 187.049 111.87 187.375C111.695 187.697 111.608 187.949 111.608 188.13C111.608 188.464 111.693 188.773 111.864 189.057C112.038 189.341 112.281 189.568 112.591 189.738C112.906 189.909 113.273 189.994 113.693 189.994C114.125 189.994 114.546 189.901 114.955 189.716C115.368 189.526 115.741 189.255 116.074 188.903C116.411 188.551 116.678 188.129 116.875 187.636C117.072 187.144 117.171 186.593 117.171 185.983H118.705C118.705 186.733 118.62 187.367 118.449 187.886C118.279 188.401 118.072 188.822 117.83 189.148C117.591 189.469 117.366 189.721 117.154 189.903C117.086 189.964 117.021 190.024 116.961 190.085C116.9 190.146 116.836 190.206 116.767 190.267C116.373 190.665 115.896 190.958 115.336 191.148C114.779 191.337 114.229 191.432 113.688 191.432ZM130.161 182.687C130.1 182.149 129.85 181.733 129.411 181.437C128.971 181.138 128.418 180.988 127.752 180.988C127.274 180.988 126.861 181.064 126.513 181.216C126.164 181.363 125.894 181.568 125.7 181.829C125.511 182.087 125.416 182.38 125.416 182.71C125.416 182.987 125.481 183.225 125.609 183.426C125.742 183.627 125.914 183.795 126.127 183.932C126.342 184.064 126.574 184.176 126.82 184.267C127.066 184.354 127.303 184.426 127.53 184.483L128.666 184.778C129.038 184.869 129.418 184.992 129.808 185.148C130.199 185.303 130.56 185.507 130.894 185.761C131.227 186.015 131.496 186.329 131.7 186.704C131.909 187.079 132.013 187.528 132.013 188.051C132.013 188.71 131.842 189.295 131.502 189.807C131.164 190.318 130.674 190.721 130.03 191.017C129.39 191.312 128.615 191.46 127.706 191.46C126.835 191.46 126.081 191.322 125.445 191.045C124.808 190.769 124.31 190.377 123.95 189.869C123.591 189.358 123.392 188.752 123.354 188.051H125.115C125.149 188.471 125.286 188.822 125.524 189.102C125.767 189.379 126.075 189.585 126.45 189.721C126.829 189.854 127.244 189.92 127.695 189.92C128.191 189.92 128.632 189.843 129.019 189.687C129.409 189.528 129.716 189.309 129.939 189.028C130.163 188.744 130.274 188.413 130.274 188.034C130.274 187.689 130.176 187.407 129.979 187.187C129.786 186.968 129.522 186.786 129.189 186.642C128.859 186.498 128.486 186.371 128.07 186.261L126.695 185.886C125.763 185.632 125.024 185.259 124.479 184.767C123.937 184.274 123.666 183.623 123.666 182.812C123.666 182.142 123.848 181.557 124.212 181.057C124.575 180.557 125.068 180.168 125.689 179.892C126.31 179.612 127.011 179.471 127.791 179.471C128.579 179.471 129.274 179.61 129.877 179.886C130.483 180.163 130.96 180.543 131.308 181.028C131.657 181.509 131.839 182.062 131.854 182.687H130.161ZM138.863 187.648V182.54H140.568V191.267H138.897V189.755H138.806C138.605 190.221 138.283 190.61 137.84 190.92C137.401 191.227 136.853 191.38 136.198 191.38C135.638 191.38 135.141 191.257 134.71 191.011C134.282 190.761 133.944 190.392 133.698 189.903C133.456 189.415 133.335 188.81 133.335 188.091V182.54H135.033V187.886C135.033 188.481 135.198 188.954 135.528 189.307C135.857 189.659 136.285 189.835 136.812 189.835C137.13 189.835 137.446 189.755 137.761 189.596C138.079 189.437 138.342 189.197 138.55 188.875C138.763 188.553 138.867 188.144 138.863 187.648ZM142.21 194.54V182.54H143.869V183.954H144.011C144.11 183.773 144.252 183.562 144.437 183.324C144.623 183.085 144.881 182.877 145.21 182.699C145.54 182.517 145.975 182.426 146.517 182.426C147.222 182.426 147.85 182.604 148.403 182.96C148.956 183.316 149.39 183.829 149.704 184.5C150.023 185.17 150.182 185.977 150.182 186.92C150.182 187.863 150.025 188.672 149.71 189.346C149.396 190.017 148.964 190.534 148.415 190.898C147.865 191.257 147.239 191.437 146.534 191.437C146.004 191.437 145.57 191.348 145.233 191.17C144.9 190.992 144.638 190.784 144.449 190.545C144.259 190.307 144.114 190.094 144.011 189.909H143.909V194.54H142.21ZM143.875 186.903C143.875 187.517 143.964 188.055 144.142 188.517C144.32 188.979 144.578 189.341 144.915 189.602C145.252 189.86 145.665 189.988 146.153 189.988C146.661 189.988 147.085 189.854 147.426 189.585C147.767 189.312 148.025 188.943 148.199 188.477C148.377 188.011 148.466 187.487 148.466 186.903C148.466 186.327 148.379 185.81 148.204 185.352C148.034 184.894 147.776 184.532 147.432 184.267C147.091 184.002 146.665 183.869 146.153 183.869C145.661 183.869 145.244 183.996 144.903 184.25C144.566 184.504 144.311 184.858 144.136 185.312C143.962 185.767 143.875 186.297 143.875 186.903ZM151.445 194.54V182.54H153.104V183.954H153.246C153.345 183.773 153.487 183.562 153.672 183.324C153.858 183.085 154.116 182.877 154.445 182.699C154.775 182.517 155.21 182.426 155.752 182.426C156.457 182.426 157.085 182.604 157.638 182.96C158.191 183.316 158.625 183.829 158.939 184.5C159.258 185.17 159.417 185.977 159.417 186.92C159.417 187.863 159.26 188.672 158.945 189.346C158.631 190.017 158.199 190.534 157.65 190.898C157.1 191.257 156.474 191.437 155.769 191.437C155.239 191.437 154.805 191.348 154.468 191.17C154.135 190.992 153.873 190.784 153.684 190.545C153.494 190.307 153.349 190.094 153.246 189.909H153.144V194.54H151.445ZM153.11 186.903C153.11 187.517 153.199 188.055 153.377 188.517C153.555 188.979 153.813 189.341 154.15 189.602C154.487 189.86 154.9 189.988 155.388 189.988C155.896 189.988 156.32 189.854 156.661 189.585C157.002 189.312 157.26 188.943 157.434 188.477C157.612 188.011 157.701 187.487 157.701 186.903C157.701 186.327 157.614 185.81 157.439 185.352C157.269 184.894 157.011 184.532 156.667 184.267C156.326 184.002 155.9 183.869 155.388 183.869C154.896 183.869 154.479 183.996 154.138 184.25C153.801 184.504 153.546 184.858 153.371 185.312C153.197 185.767 153.11 186.297 153.11 186.903ZM164.356 191.443C163.538 191.443 162.824 191.255 162.214 190.88C161.604 190.505 161.131 189.981 160.794 189.307C160.457 188.632 160.288 187.844 160.288 186.943C160.288 186.038 160.457 185.246 160.794 184.568C161.131 183.89 161.604 183.363 162.214 182.988C162.824 182.613 163.538 182.426 164.356 182.426C165.174 182.426 165.889 182.613 166.498 182.988C167.108 183.363 167.582 183.89 167.919 184.568C168.256 185.246 168.424 186.038 168.424 186.943C168.424 187.844 168.256 188.632 167.919 189.307C167.582 189.981 167.108 190.505 166.498 190.88C165.889 191.255 165.174 191.443 164.356 191.443ZM164.362 190.017C164.892 190.017 165.332 189.877 165.68 189.596C166.029 189.316 166.286 188.943 166.453 188.477C166.623 188.011 166.709 187.498 166.709 186.937C166.709 186.38 166.623 185.869 166.453 185.403C166.286 184.934 166.029 184.557 165.68 184.273C165.332 183.988 164.892 183.846 164.362 183.846C163.828 183.846 163.385 183.988 163.032 184.273C162.684 184.557 162.424 184.934 162.254 185.403C162.087 185.869 162.004 186.38 162.004 186.937C162.004 187.498 162.087 188.011 162.254 188.477C162.424 188.943 162.684 189.316 163.032 189.596C163.385 189.877 163.828 190.017 164.362 190.017ZM169.681 191.267V182.54H171.323V183.926H171.414C171.573 183.456 171.853 183.087 172.255 182.818C172.66 182.545 173.118 182.409 173.63 182.409C173.736 182.409 173.861 182.413 174.005 182.42C174.152 182.428 174.268 182.437 174.351 182.449V184.074C174.283 184.055 174.162 184.034 173.988 184.011C173.813 183.985 173.639 183.971 173.465 183.971C173.063 183.971 172.705 184.057 172.391 184.227C172.08 184.394 171.834 184.627 171.652 184.926C171.471 185.221 171.38 185.559 171.38 185.937V191.267H169.681ZM179.771 182.54V183.903H175.004V182.54H179.771ZM176.282 180.449H177.981V188.704C177.981 189.034 178.03 189.282 178.129 189.449C178.227 189.612 178.354 189.723 178.51 189.784C178.669 189.841 178.841 189.869 179.027 189.869C179.163 189.869 179.282 189.86 179.385 189.841C179.487 189.822 179.566 189.807 179.623 189.795L179.93 191.199C179.832 191.237 179.691 191.274 179.51 191.312C179.328 191.354 179.1 191.377 178.828 191.38C178.381 191.388 177.964 191.309 177.578 191.142C177.191 190.975 176.879 190.718 176.64 190.369C176.402 190.021 176.282 189.583 176.282 189.057V180.449Z" fill="#696F79"/>
</g>
<rect x="0.5" y="218.767" width="66" height="354" rx="9.5" transform="rotate(-90 0.5 218.767)" stroke="white" stroke-opacity="0.17"/>
<g clip-path="url(#clip6_63_848)">
<rect y="295.267" width="67" height="355" rx="10" transform="rotate(-90 0 295.267)" fill="white" fill-opacity="0.3"/>
<g clip-path="url(#clip7_63_848)">
<rect x="11" y="237.459" width="50" height="49" rx="10" fill="white" fill-opacity="0.12"/>
<rect x="11.5" y="237.459" width="49" height="49" fill="#FC4C02"/>
<path d="M35.0238 266.959H36.9761V260.959H35.0238V266.959ZM36 258.959C36.2765 258.959 36.5085 258.863 36.696 258.671C36.8834 258.479 36.9768 258.241 36.9761 257.959C36.9761 257.675 36.8824 257.438 36.695 257.246C36.5076 257.054 36.2759 256.958 36 256.959C35.7234 256.959 35.4914 257.055 35.3039 257.247C35.1165 257.439 35.0231 257.676 35.0238 257.959C35.0238 258.242 35.1175 258.48 35.3049 258.672C35.4923 258.864 35.724 258.959 36 258.959ZM36 271.959C33.7384 271.375 31.8713 270.046 30.3986 267.971C28.9258 265.895 28.1898 263.591 28.1904 261.059V254.959L36 251.959L43.8095 254.959V261.059C43.8095 263.592 43.0731 265.896 41.6004 267.972C40.1276 270.047 38.2608 271.376 36 271.959ZM36 269.859C37.692 269.309 39.0912 268.209 40.1976 266.559C41.3039 264.909 41.8571 263.075 41.8571 261.059V256.334L36 254.084L30.1428 256.334V261.059C30.1428 263.075 30.696 264.909 31.8023 266.559C32.9087 268.209 34.3079 269.309 36 269.859Z" fill="white"/>
</g>
<path d="M73.7045 257.142V255.63H82.7102V257.142H79.0795V267.267H77.3295V257.142H73.7045ZM86.4197 267.443C85.5598 267.443 84.8193 267.259 84.1981 266.892C83.5806 266.521 83.1034 266 82.7662 265.329C82.4329 264.655 82.2662 263.865 82.2662 262.96C82.2662 262.066 82.4329 261.278 82.7662 260.596C83.1034 259.915 83.5731 259.382 84.1753 259C84.7814 258.617 85.4897 258.426 86.3003 258.426C86.7928 258.426 87.27 258.507 87.7322 258.67C88.1943 258.833 88.6091 259.089 88.9765 259.437C89.3439 259.786 89.6337 260.238 89.8458 260.795C90.0579 261.348 90.164 262.021 90.164 262.812V263.415H83.2265V262.142H88.4992C88.4992 261.695 88.4083 261.299 88.2265 260.954C88.0447 260.606 87.789 260.331 87.4594 260.13C87.1337 259.93 86.7511 259.829 86.3117 259.829C85.8344 259.829 85.4178 259.947 85.0617 260.182C84.7094 260.413 84.4367 260.716 84.2435 261.091C84.0541 261.462 83.9594 261.865 83.9594 262.301V263.295C83.9594 263.879 84.0617 264.375 84.2662 264.784C84.4746 265.193 84.7644 265.505 85.1356 265.721C85.5068 265.934 85.9405 266.04 86.4367 266.04C86.7587 266.04 87.0522 265.994 87.3174 265.903C87.5825 265.809 87.8117 265.668 88.0049 265.483C88.1981 265.297 88.3458 265.068 88.4481 264.795L90.056 265.085C89.9272 265.559 89.6962 265.973 89.3628 266.329C89.0333 266.682 88.6185 266.956 88.1185 267.153C87.6223 267.346 87.056 267.443 86.4197 267.443ZM91.4089 267.267V258.54H93.051V259.926H93.1419C93.301 259.456 93.5813 259.087 93.9828 258.818C94.3881 258.545 94.8464 258.409 95.3578 258.409C95.4638 258.409 95.5888 258.413 95.7328 258.42C95.8805 258.428 95.996 258.437 96.0794 258.449V260.074C96.0112 260.055 95.89 260.034 95.7157 260.011C95.5415 259.985 95.3673 259.971 95.193 259.971C94.7915 259.971 94.4335 260.057 94.1191 260.227C93.8085 260.394 93.5623 260.627 93.3805 260.926C93.1987 261.221 93.1078 261.559 93.1078 261.937V267.267H91.4089ZM96.9095 267.267V258.54H98.5402V259.96H98.6482C98.83 259.479 99.1273 259.104 99.5402 258.835C99.9531 258.562 100.447 258.426 101.023 258.426C101.607 258.426 102.095 258.562 102.489 258.835C102.887 259.108 103.18 259.483 103.37 259.96H103.461C103.669 259.494 104 259.123 104.455 258.846C104.91 258.566 105.451 258.426 106.08 258.426C106.872 258.426 107.517 258.674 108.017 259.17C108.521 259.666 108.773 260.415 108.773 261.415V267.267H107.074V261.574C107.074 260.983 106.913 260.555 106.591 260.29C106.269 260.024 105.885 259.892 105.438 259.892C104.885 259.892 104.455 260.062 104.148 260.403C103.841 260.74 103.688 261.174 103.688 261.704V267.267H101.995V261.466C101.995 260.992 101.847 260.612 101.552 260.324C101.256 260.036 100.872 259.892 100.398 259.892C100.076 259.892 99.7789 259.977 99.5061 260.148C99.2372 260.314 99.0194 260.547 98.8527 260.846C98.6898 261.146 98.6084 261.492 98.6084 261.886V267.267H96.9095ZM116.95 260.67L115.41 260.943C115.346 260.746 115.244 260.559 115.103 260.38C114.967 260.202 114.781 260.057 114.547 259.943C114.312 259.829 114.018 259.773 113.666 259.773C113.185 259.773 112.783 259.88 112.461 260.096C112.139 260.309 111.978 260.583 111.978 260.92C111.978 261.212 112.086 261.447 112.302 261.625C112.518 261.803 112.867 261.949 113.348 262.062L114.734 262.38C115.537 262.566 116.136 262.852 116.529 263.238C116.923 263.625 117.12 264.127 117.12 264.744C117.12 265.267 116.969 265.733 116.666 266.142C116.367 266.547 115.948 266.865 115.41 267.096C114.876 267.327 114.257 267.443 113.552 267.443C112.575 267.443 111.778 267.235 111.16 266.818C110.543 266.398 110.164 265.801 110.024 265.028L111.666 264.778C111.768 265.206 111.978 265.53 112.297 265.75C112.615 265.966 113.029 266.074 113.541 266.074C114.098 266.074 114.543 265.958 114.876 265.727C115.209 265.492 115.376 265.206 115.376 264.869C115.376 264.596 115.274 264.367 115.069 264.182C114.869 263.996 114.56 263.856 114.143 263.761L112.666 263.437C111.851 263.252 111.249 262.956 110.859 262.551C110.473 262.146 110.279 261.632 110.279 261.011C110.279 260.496 110.423 260.045 110.711 259.659C110.999 259.273 111.397 258.971 111.904 258.755C112.412 258.536 112.994 258.426 113.649 258.426C114.592 258.426 115.334 258.63 115.876 259.04C116.418 259.445 116.776 259.988 116.95 260.67ZM123.062 267.267H121.198L125.386 255.63H127.414L131.602 267.267H129.738L126.448 257.744H126.357L123.062 267.267ZM123.374 262.71H129.42V264.187H123.374V262.71ZM134.205 262.085V267.267H132.506V258.54H134.136V259.96H134.244C134.445 259.498 134.76 259.127 135.188 258.846C135.619 258.566 136.163 258.426 136.818 258.426C137.413 258.426 137.934 258.551 138.381 258.801C138.828 259.047 139.174 259.415 139.421 259.903C139.667 260.392 139.79 260.996 139.79 261.716V267.267H138.091V261.92C138.091 261.288 137.926 260.793 137.597 260.437C137.267 260.077 136.815 259.898 136.239 259.898C135.845 259.898 135.494 259.983 135.188 260.153C134.885 260.324 134.644 260.574 134.466 260.903C134.292 261.229 134.205 261.623 134.205 262.085ZM144.695 267.437C143.991 267.437 143.362 267.257 142.809 266.898C142.26 266.534 141.828 266.017 141.514 265.346C141.203 264.672 141.048 263.863 141.048 262.92C141.048 261.977 141.205 261.17 141.519 260.5C141.837 259.829 142.273 259.316 142.826 258.96C143.379 258.604 144.006 258.426 144.707 258.426C145.248 258.426 145.684 258.517 146.014 258.699C146.347 258.877 146.604 259.085 146.786 259.324C146.972 259.562 147.116 259.773 147.218 259.954H147.32V255.63H149.019V267.267H147.36V265.909H147.218C147.116 266.094 146.968 266.307 146.775 266.545C146.585 266.784 146.324 266.992 145.991 267.17C145.657 267.348 145.226 267.437 144.695 267.437ZM145.07 265.988C145.559 265.988 145.972 265.86 146.309 265.602C146.65 265.341 146.907 264.979 147.082 264.517C147.26 264.055 147.349 263.517 147.349 262.903C147.349 262.297 147.262 261.767 147.087 261.312C146.913 260.858 146.657 260.504 146.32 260.25C145.983 259.996 145.567 259.869 145.07 259.869C144.559 259.869 144.133 260.002 143.792 260.267C143.451 260.532 143.193 260.894 143.019 261.352C142.849 261.81 142.764 262.327 142.764 262.903C142.764 263.487 142.851 264.011 143.025 264.477C143.199 264.943 143.457 265.312 143.798 265.585C144.142 265.854 144.567 265.988 145.07 265.988ZM154.535 267.267V255.63H158.682C159.588 255.63 160.338 255.795 160.932 256.125C161.527 256.454 161.972 256.905 162.268 257.477C162.563 258.045 162.711 258.685 162.711 259.398C162.711 260.113 162.561 260.757 162.262 261.329C161.966 261.898 161.52 262.348 160.921 262.682C160.326 263.011 159.578 263.176 158.677 263.176H155.824V261.687H158.518C159.09 261.687 159.554 261.589 159.91 261.392C160.266 261.191 160.527 260.918 160.694 260.574C160.86 260.229 160.944 259.837 160.944 259.398C160.944 258.958 160.86 258.568 160.694 258.227C160.527 257.886 160.264 257.619 159.904 257.426C159.548 257.233 159.078 257.136 158.495 257.136H156.29V267.267H154.535ZM167.559 267.443C166.741 267.443 166.027 267.255 165.417 266.88C164.808 266.505 164.334 265.981 163.997 265.307C163.66 264.632 163.491 263.844 163.491 262.943C163.491 262.038 163.66 261.246 163.997 260.568C164.334 259.89 164.808 259.363 165.417 258.988C166.027 258.613 166.741 258.426 167.559 258.426C168.378 258.426 169.092 258.613 169.701 258.988C170.311 259.363 170.785 259.89 171.122 260.568C171.459 261.246 171.628 262.038 171.628 262.943C171.628 263.844 171.459 264.632 171.122 265.307C170.785 265.981 170.311 266.505 169.701 266.88C169.092 267.255 168.378 267.443 167.559 267.443ZM167.565 266.017C168.095 266.017 168.535 265.877 168.883 265.596C169.232 265.316 169.489 264.943 169.656 264.477C169.826 264.011 169.912 263.498 169.912 262.937C169.912 262.38 169.826 261.869 169.656 261.403C169.489 260.934 169.232 260.557 168.883 260.273C168.535 259.988 168.095 259.846 167.565 259.846C167.031 259.846 166.588 259.988 166.236 260.273C165.887 260.557 165.628 260.934 165.457 261.403C165.29 261.869 165.207 262.38 165.207 262.937C165.207 263.498 165.29 264.011 165.457 264.477C165.628 264.943 165.887 265.316 166.236 265.596C166.588 265.877 167.031 266.017 167.565 266.017ZM174.583 255.63V267.267H172.884V255.63H174.583ZM176.228 267.267V258.54H177.927V267.267H176.228ZM177.086 257.193C176.791 257.193 176.537 257.094 176.325 256.898C176.117 256.697 176.012 256.458 176.012 256.182C176.012 255.901 176.117 255.663 176.325 255.466C176.537 255.265 176.791 255.165 177.086 255.165C177.382 255.165 177.634 255.265 177.842 255.466C178.054 255.663 178.16 255.901 178.16 256.182C178.16 256.458 178.054 256.697 177.842 256.898C177.634 257.094 177.382 257.193 177.086 257.193ZM183.249 267.443C182.404 267.443 181.677 267.252 181.067 266.869C180.461 266.483 179.995 265.951 179.669 265.273C179.344 264.594 179.181 263.818 179.181 262.943C179.181 262.057 179.347 261.274 179.681 260.596C180.014 259.915 180.484 259.382 181.09 259C181.696 258.617 182.41 258.426 183.232 258.426C183.895 258.426 184.486 258.549 185.004 258.795C185.523 259.038 185.942 259.379 186.26 259.818C186.582 260.257 186.773 260.771 186.834 261.358H185.181C185.09 260.949 184.881 260.596 184.556 260.301C184.234 260.005 183.802 259.858 183.26 259.858C182.787 259.858 182.372 259.983 182.016 260.233C181.664 260.479 181.389 260.831 181.192 261.29C180.995 261.744 180.897 262.282 180.897 262.903C180.897 263.54 180.993 264.089 181.186 264.551C181.379 265.013 181.652 265.371 182.004 265.625C182.361 265.879 182.779 266.005 183.26 266.005C183.582 266.005 183.874 265.947 184.135 265.829C184.4 265.708 184.622 265.536 184.8 265.312C184.982 265.089 185.109 264.82 185.181 264.505H186.834C186.773 265.07 186.59 265.574 186.283 266.017C185.976 266.46 185.565 266.809 185.05 267.062C184.539 267.316 183.938 267.443 183.249 267.443ZM188.011 267.267V258.54H189.71V267.267H188.011ZM188.869 257.193C188.573 257.193 188.32 257.094 188.107 256.898C187.899 256.697 187.795 256.458 187.795 256.182C187.795 255.901 187.899 255.663 188.107 255.466C188.32 255.265 188.573 255.165 188.869 255.165C189.164 255.165 189.416 255.265 189.624 255.466C189.837 255.663 189.943 255.901 189.943 256.182C189.943 256.458 189.837 256.697 189.624 256.898C189.416 257.094 189.164 257.193 188.869 257.193ZM195.117 267.443C194.257 267.443 193.516 267.259 192.895 266.892C192.278 266.521 191.8 266 191.463 265.329C191.13 264.655 190.963 263.865 190.963 262.96C190.963 262.066 191.13 261.278 191.463 260.596C191.8 259.915 192.27 259.382 192.872 259C193.478 258.617 194.187 258.426 194.997 258.426C195.49 258.426 195.967 258.507 196.429 258.67C196.891 258.833 197.306 259.089 197.673 259.437C198.041 259.786 198.331 260.238 198.543 260.795C198.755 261.348 198.861 262.021 198.861 262.812V263.415H191.923V262.142H197.196C197.196 261.695 197.105 261.299 196.923 260.954C196.742 260.606 196.486 260.331 196.156 260.13C195.831 259.93 195.448 259.829 195.009 259.829C194.531 259.829 194.115 259.947 193.759 260.182C193.406 260.413 193.134 260.716 192.94 261.091C192.751 261.462 192.656 261.865 192.656 262.301V263.295C192.656 263.879 192.759 264.375 192.963 264.784C193.171 265.193 193.461 265.505 193.832 265.721C194.204 265.934 194.637 266.04 195.134 266.04C195.456 266.04 195.749 265.994 196.014 265.903C196.279 265.809 196.509 265.668 196.702 265.483C196.895 265.297 197.043 265.068 197.145 264.795L198.753 265.085C198.624 265.559 198.393 265.973 198.06 266.329C197.73 266.682 197.315 266.956 196.815 267.153C196.319 267.346 195.753 267.443 195.117 267.443ZM206.646 260.67L205.106 260.943C205.041 260.746 204.939 260.559 204.799 260.38C204.663 260.202 204.477 260.057 204.242 259.943C204.007 259.829 203.714 259.773 203.361 259.773C202.88 259.773 202.479 259.88 202.157 260.096C201.835 260.309 201.674 260.583 201.674 260.92C201.674 261.212 201.782 261.447 201.998 261.625C202.214 261.803 202.562 261.949 203.043 262.062L204.43 262.38C205.233 262.566 205.831 262.852 206.225 263.238C206.619 263.625 206.816 264.127 206.816 264.744C206.816 265.267 206.665 265.733 206.361 266.142C206.062 266.547 205.644 266.865 205.106 267.096C204.572 267.327 203.952 267.443 203.248 267.443C202.271 267.443 201.473 267.235 200.856 266.818C200.238 266.398 199.86 265.801 199.719 265.028L201.361 264.778C201.464 265.206 201.674 265.53 201.992 265.75C202.31 265.966 202.725 266.074 203.236 266.074C203.793 266.074 204.238 265.958 204.572 265.727C204.905 265.492 205.072 265.206 205.072 264.869C205.072 264.596 204.969 264.367 204.765 264.182C204.564 263.996 204.255 263.856 203.839 263.761L202.361 263.437C201.547 263.252 200.945 262.956 200.555 262.551C200.168 262.146 199.975 261.632 199.975 261.011C199.975 260.496 200.119 260.045 200.407 259.659C200.695 259.273 201.093 258.971 201.6 258.755C202.108 258.536 202.689 258.426 203.344 258.426C204.288 258.426 205.03 258.63 205.572 259.04C206.113 259.445 206.471 259.988 206.646 260.67Z" fill="#696F79"/>
</g>
<rect x="0.5" y="294.767" width="66" height="354" rx="9.5" transform="rotate(-90 0.5 294.767)" stroke="white" stroke-opacity="0.17"/>
<g clip-path="url(#clip8_63_848)">
<rect y="371.267" width="67" height="355" rx="10" transform="rotate(-90 0 371.267)" fill="white" fill-opacity="0.3"/>
<path d="M153.278 343.267V331.63H155.034V341.755H160.307V343.267H153.278ZM165.209 343.443C164.391 343.443 163.677 343.255 163.067 342.88C162.458 342.505 161.984 341.981 161.647 341.307C161.31 340.632 161.141 339.844 161.141 338.943C161.141 338.038 161.31 337.246 161.647 336.568C161.984 335.89 162.458 335.363 163.067 334.988C163.677 334.613 164.391 334.426 165.209 334.426C166.028 334.426 166.742 334.613 167.351 334.988C167.961 335.363 168.435 335.89 168.772 336.568C169.109 337.246 169.278 338.038 169.278 338.943C169.278 339.844 169.109 340.632 168.772 341.307C168.435 341.981 167.961 342.505 167.351 342.88C166.742 343.255 166.028 343.443 165.209 343.443ZM165.215 342.017C165.745 342.017 166.185 341.877 166.533 341.596C166.882 341.316 167.139 340.943 167.306 340.477C167.476 340.011 167.562 339.498 167.562 338.937C167.562 338.38 167.476 337.869 167.306 337.403C167.139 336.934 166.882 336.557 166.533 336.273C166.185 335.988 165.745 335.846 165.215 335.846C164.681 335.846 164.238 335.988 163.886 336.273C163.537 336.557 163.278 336.934 163.107 337.403C162.94 337.869 162.857 338.38 162.857 338.937C162.857 339.498 162.94 340.011 163.107 340.477C163.278 340.943 163.537 341.316 163.886 341.596C164.238 341.877 164.681 342.017 165.215 342.017ZM174.193 346.721C173.5 346.721 172.903 346.63 172.403 346.449C171.907 346.267 171.502 346.026 171.187 345.727C170.873 345.428 170.638 345.1 170.483 344.744L171.943 344.142C172.045 344.309 172.182 344.485 172.352 344.67C172.526 344.86 172.761 345.021 173.057 345.153C173.356 345.286 173.74 345.352 174.21 345.352C174.854 345.352 175.386 345.195 175.807 344.88C176.227 344.57 176.437 344.074 176.437 343.392V341.676H176.329C176.227 341.862 176.079 342.068 175.886 342.295C175.697 342.523 175.435 342.719 175.102 342.886C174.769 343.053 174.335 343.136 173.801 343.136C173.112 343.136 172.49 342.975 171.937 342.653C171.388 342.327 170.952 341.848 170.631 341.216C170.312 340.579 170.153 339.797 170.153 338.869C170.153 337.941 170.31 337.146 170.625 336.483C170.943 335.82 171.379 335.312 171.932 334.96C172.485 334.604 173.112 334.426 173.812 334.426C174.354 334.426 174.791 334.517 175.125 334.699C175.458 334.877 175.718 335.085 175.903 335.324C176.093 335.562 176.238 335.773 176.341 335.954H176.466V334.54H178.131V343.46C178.131 344.21 177.956 344.826 177.608 345.307C177.259 345.788 176.788 346.144 176.193 346.375C175.602 346.606 174.935 346.721 174.193 346.721ZM174.176 341.727C174.665 341.727 175.077 341.613 175.415 341.386C175.756 341.155 176.013 340.826 176.187 340.398C176.365 339.966 176.454 339.449 176.454 338.846C176.454 338.259 176.367 337.742 176.193 337.295C176.019 336.848 175.763 336.5 175.426 336.25C175.089 335.996 174.672 335.869 174.176 335.869C173.665 335.869 173.238 336.002 172.898 336.267C172.557 336.528 172.299 336.884 172.125 337.335C171.954 337.786 171.869 338.29 171.869 338.846C171.869 339.418 171.956 339.92 172.131 340.352C172.305 340.784 172.562 341.121 172.903 341.363C173.248 341.606 173.672 341.727 174.176 341.727ZM183.445 343.443C182.627 343.443 181.913 343.255 181.303 342.88C180.693 342.505 180.22 341.981 179.883 341.307C179.545 340.632 179.377 339.844 179.377 338.943C179.377 338.038 179.545 337.246 179.883 336.568C180.22 335.89 180.693 335.363 181.303 334.988C181.913 334.613 182.627 334.426 183.445 334.426C184.263 334.426 184.977 334.613 185.587 334.988C186.197 335.363 186.67 335.89 187.008 336.568C187.345 337.246 187.513 338.038 187.513 338.943C187.513 339.844 187.345 340.632 187.008 341.307C186.67 341.981 186.197 342.505 185.587 342.88C184.977 343.255 184.263 343.443 183.445 343.443ZM183.451 342.017C183.981 342.017 184.42 341.877 184.769 341.596C185.117 341.316 185.375 340.943 185.542 340.477C185.712 340.011 185.797 339.498 185.797 338.937C185.797 338.38 185.712 337.869 185.542 337.403C185.375 336.934 185.117 336.557 184.769 336.273C184.42 335.988 183.981 335.846 183.451 335.846C182.917 335.846 182.473 335.988 182.121 336.273C181.773 336.557 181.513 336.934 181.343 337.403C181.176 337.869 181.093 338.38 181.093 338.937C181.093 339.498 181.176 340.011 181.343 340.477C181.513 340.943 181.773 341.316 182.121 341.596C182.473 341.877 182.917 342.017 183.451 342.017ZM194.298 339.648V334.54H196.002V343.267H194.332V341.755H194.241C194.04 342.221 193.718 342.61 193.275 342.92C192.836 343.227 192.288 343.38 191.633 343.38C191.073 343.38 190.576 343.257 190.145 343.011C189.717 342.761 189.379 342.392 189.133 341.903C188.891 341.415 188.77 340.81 188.77 340.091V334.54H190.468V339.886C190.468 340.481 190.633 340.954 190.963 341.307C191.292 341.659 191.72 341.835 192.247 341.835C192.565 341.835 192.881 341.755 193.196 341.596C193.514 341.437 193.777 341.197 193.985 340.875C194.198 340.553 194.302 340.144 194.298 339.648ZM201.719 334.54V335.903H196.952V334.54H201.719ZM198.23 332.449H199.929V340.704C199.929 341.034 199.979 341.282 200.077 341.449C200.175 341.612 200.302 341.723 200.458 341.784C200.617 341.841 200.789 341.869 200.975 341.869C201.111 341.869 201.23 341.86 201.333 341.841C201.435 341.822 201.514 341.807 201.571 341.795L201.878 343.199C201.78 343.237 201.639 343.274 201.458 343.312C201.276 343.354 201.049 343.377 200.776 343.38C200.329 343.388 199.912 343.309 199.526 343.142C199.139 342.975 198.827 342.718 198.588 342.369C198.35 342.021 198.23 341.583 198.23 341.057V332.449Z" fill="#696F79"/>
</g>
<rect x="0.5" y="370.767" width="66" height="354" rx="9.5" transform="rotate(-90 0.5 370.767)" stroke="white" stroke-opacity="0.17"/>
<defs>
<clipPath id="clip0_63_848">
<rect y="67.2668" width="67" height="355" rx="10" transform="rotate(-90 0 67.2668)" fill="white"/>
</clipPath>
<clipPath id="clip1_63_848">
<rect x="11" y="9.45874" width="50" height="49" rx="10" fill="white"/>
</clipPath>
<clipPath id="clip2_63_848">
<rect y="143.267" width="67" height="355" rx="10" transform="rotate(-90 0 143.267)" fill="white"/>
</clipPath>
<clipPath id="clip3_63_848">
<rect x="11" y="85.4587" width="50" height="49" rx="10" fill="white"/>
</clipPath>
<clipPath id="clip4_63_848">
<rect y="219.267" width="67" height="355" rx="10" transform="rotate(-90 0 219.267)" fill="white"/>
</clipPath>
<clipPath id="clip5_63_848">
<rect x="11" y="161.459" width="50" height="49" rx="10" fill="white"/>
</clipPath>
<clipPath id="clip6_63_848">
<rect y="295.267" width="67" height="355" rx="10" transform="rotate(-90 0 295.267)" fill="white"/>
</clipPath>
<clipPath id="clip7_63_848">
<rect x="11" y="237.459" width="50" height="49" rx="10" fill="white"/>
</clipPath>
<clipPath id="clip8_63_848">
<rect y="371.267" width="67" height="355" rx="10" transform="rotate(-90 0 371.267)" fill="white"/>
</clipPath>
</defs>
</svg>
