<svg width="553" height="125" viewBox="0 0 553 125" fill="none" xmlns="http://www.w3.org/2000/svg">
<rect x="0.141602" y="1.40894" width="108" height="122" rx="20" fill="#A83500" fill-opacity="0.09"/>
<path d="M20.8536 28.5629C20.1256 28.5629 19.4489 28.4369 18.8236 28.1849C18.2076 27.9236 17.6616 27.5643 17.1856 27.1069C16.7189 26.6403 16.3549 26.1036 16.0936 25.4969C15.8416 24.8809 15.7156 24.2183 15.7156 23.5089C15.7156 22.7996 15.8416 22.1416 16.0936 21.5349C16.3549 20.9189 16.7189 20.3823 17.1856 19.9249C17.6616 19.4583 18.2123 19.0989 18.8376 18.8469C19.4629 18.5856 20.1349 18.4549 20.8536 18.4549C21.3669 18.4549 21.8663 18.5249 22.3516 18.6649C22.8463 18.7956 23.2989 18.9869 23.7096 19.2389C24.1296 19.4909 24.4936 19.7943 24.8016 20.1489L23.8216 21.1569C23.4576 20.7183 23.0143 20.3869 22.4916 20.1629C21.9689 19.9296 21.4229 19.8129 20.8536 19.8129C20.3309 19.8129 19.8456 19.9063 19.3976 20.0929C18.9589 20.2796 18.5763 20.5409 18.2496 20.8769C17.9229 21.2036 17.6663 21.5909 17.4796 22.0389C17.3023 22.4869 17.2136 22.9769 17.2136 23.5089C17.2136 24.0316 17.3023 24.5169 17.4796 24.9649C17.6663 25.4129 17.9276 25.8049 18.2636 26.1409C18.5996 26.4769 18.9916 26.7383 19.4396 26.9249C19.8876 27.1116 20.3729 27.2049 20.8956 27.2049C21.4649 27.2049 22.0016 27.0929 22.5056 26.8689C23.0189 26.6356 23.4529 26.3089 23.8076 25.8889L24.7736 26.8689C24.4469 27.2143 24.0736 27.5176 23.6536 27.7789C23.2429 28.0309 22.7949 28.2269 22.3096 28.3669C21.8336 28.4976 21.3483 28.5629 20.8536 28.5629ZM28.0178 28.5349C27.5044 28.5349 27.0518 28.4463 26.6598 28.2689C26.2678 28.0823 25.9598 27.8256 25.7358 27.4989C25.5118 27.1723 25.3998 26.7943 25.3998 26.3649C25.3998 25.6929 25.6564 25.1656 26.1698 24.7829C26.6831 24.3909 27.3878 24.1949 28.2838 24.1949C28.9838 24.1949 29.6324 24.3303 30.2298 24.6009V23.8449C30.2298 23.3316 30.0804 22.9489 29.7818 22.6969C29.4924 22.4449 29.0631 22.3189 28.4938 22.3189C28.1671 22.3189 27.8264 22.3703 27.4718 22.4729C27.1171 22.5663 26.7204 22.7156 26.2818 22.9209L25.7638 21.8709C26.3051 21.6189 26.8091 21.4369 27.2758 21.3249C27.7424 21.2036 28.2138 21.1429 28.6898 21.1429C29.6138 21.1429 30.3278 21.3623 30.8318 21.8009C31.3451 22.2396 31.6018 22.8649 31.6018 23.6769V28.4089H30.2298V27.7929C29.9124 28.0449 29.5718 28.2316 29.2078 28.3529C28.8438 28.4743 28.4471 28.5349 28.0178 28.5349ZM26.7438 26.3369C26.7438 26.6823 26.8884 26.9623 27.1778 27.1769C27.4764 27.3916 27.8638 27.4989 28.3398 27.4989C28.7131 27.4989 29.0538 27.4429 29.3618 27.3309C29.6791 27.2189 29.9684 27.0463 30.2298 26.8129V25.6089C29.9591 25.4503 29.6744 25.3383 29.3758 25.2729C29.0864 25.1983 28.7598 25.1609 28.3958 25.1609C27.8824 25.1609 27.4764 25.2683 27.1778 25.4829C26.8884 25.6883 26.7438 25.9729 26.7438 26.3369ZM32.9349 28.4089V21.2829H34.3349V21.9689C34.8669 21.4183 35.5343 21.1429 36.3369 21.1429C36.8223 21.1429 37.2516 21.2503 37.6249 21.4649C38.0076 21.6796 38.3109 21.9689 38.5349 22.3329C38.8336 21.9409 39.1836 21.6469 39.5849 21.4509C39.9863 21.2456 40.4389 21.1429 40.9429 21.1429C41.4749 21.1429 41.9369 21.2596 42.3289 21.4929C42.7303 21.7263 43.0429 22.0529 43.2669 22.4729C43.5003 22.8929 43.6169 23.3783 43.6169 23.9289V28.4089H42.2169V24.1669C42.2169 23.6069 42.0676 23.1683 41.7689 22.8509C41.4796 22.5243 41.0829 22.3609 40.5789 22.3609C40.2336 22.3609 39.9209 22.4403 39.6409 22.5989C39.3609 22.7576 39.1183 23.0003 38.9129 23.3269C38.9316 23.4203 38.9456 23.5183 38.9549 23.6209C38.9643 23.7236 38.9689 23.8263 38.9689 23.9289V28.4089H37.5829V24.1669C37.5829 23.6069 37.4336 23.1683 37.1349 22.8509C36.8456 22.5243 36.4489 22.3609 35.9449 22.3609C35.6089 22.3609 35.3056 22.4356 35.0349 22.5849C34.7643 22.7249 34.5309 22.9396 34.3349 23.2289V28.4089H32.9349ZM44.946 31.2649V21.2829H46.332V21.9689C46.9293 21.4369 47.6573 21.1709 48.516 21.1709C49.188 21.1709 49.7946 21.3343 50.336 21.6609C50.8866 21.9876 51.3206 22.4263 51.638 22.9769C51.9553 23.5276 52.114 24.1483 52.114 24.8389C52.114 25.5296 51.9506 26.1549 51.624 26.7149C51.3066 27.2656 50.8726 27.7043 50.322 28.0309C49.7806 28.3576 49.1693 28.5209 48.488 28.5209C48.096 28.5209 47.718 28.4603 47.354 28.3389C46.99 28.2083 46.654 28.0263 46.346 27.7929V31.2649H44.946ZM48.334 27.3029C48.7913 27.3029 49.1973 27.1956 49.552 26.9809C49.916 26.7663 50.2053 26.4769 50.42 26.1129C50.6346 25.7396 50.742 25.3196 50.742 24.8529C50.742 24.3863 50.6346 23.9663 50.42 23.5929C50.2053 23.2196 49.916 22.9256 49.552 22.7109C49.1973 22.4963 48.7913 22.3889 48.334 22.3889C47.9326 22.3889 47.5593 22.4636 47.214 22.6129C46.8686 22.7623 46.5793 22.9723 46.346 23.2429V26.4629C46.5793 26.7243 46.8686 26.9296 47.214 27.0789C47.5686 27.2283 47.942 27.3029 48.334 27.3029ZM55.4922 28.5349C54.9789 28.5349 54.5262 28.4463 54.1342 28.2689C53.7422 28.0823 53.4342 27.8256 53.2102 27.4989C52.9862 27.1723 52.8742 26.7943 52.8742 26.3649C52.8742 25.6929 53.1309 25.1656 53.6442 24.7829C54.1576 24.3909 54.8622 24.1949 55.7582 24.1949C56.4582 24.1949 57.1069 24.3303 57.7042 24.6009V23.8449C57.7042 23.3316 57.5549 22.9489 57.2562 22.6969C56.9669 22.4449 56.5376 22.3189 55.9682 22.3189C55.6416 22.3189 55.3009 22.3703 54.9462 22.4729C54.5916 22.5663 54.1949 22.7156 53.7562 22.9209L53.2382 21.8709C53.7796 21.6189 54.2836 21.4369 54.7502 21.3249C55.2169 21.2036 55.6882 21.1429 56.1642 21.1429C57.0882 21.1429 57.8022 21.3623 58.3062 21.8009C58.8196 22.2396 59.0762 22.8649 59.0762 23.6769V28.4089H57.7042V27.7929C57.3869 28.0449 57.0462 28.2316 56.6822 28.3529C56.3182 28.4743 55.9216 28.5349 55.4922 28.5349ZM54.2182 26.3369C54.2182 26.6823 54.3629 26.9623 54.6522 27.1769C54.9509 27.3916 55.3382 27.4989 55.8142 27.4989C56.1876 27.4989 56.5282 27.4429 56.8362 27.3309C57.1536 27.2189 57.4429 27.0463 57.7042 26.8129V25.6089C57.4336 25.4503 57.1489 25.3383 56.8502 25.2729C56.5609 25.1983 56.2342 25.1609 55.8702 25.1609C55.3569 25.1609 54.9509 25.2683 54.6522 25.4829C54.3629 25.6883 54.2182 25.9729 54.2182 26.3369ZM60.4094 28.4089V21.2829H61.8094V28.4089H60.4094ZM61.1094 20.1349C60.8761 20.1349 60.6754 20.0509 60.5074 19.8829C60.3394 19.7056 60.2554 19.5003 60.2554 19.2669C60.2554 19.0243 60.3394 18.8236 60.5074 18.6649C60.6754 18.4969 60.8761 18.4129 61.1094 18.4129C61.3521 18.4129 61.5574 18.4969 61.7254 18.6649C61.8934 18.8236 61.9774 19.0243 61.9774 19.2669C61.9774 19.5003 61.8934 19.7056 61.7254 19.8829C61.5574 20.0509 61.3521 20.1349 61.1094 20.1349ZM66.7062 31.4049C66.1836 31.4049 65.6749 31.3443 65.1802 31.2229C64.6856 31.1016 64.2376 30.9289 63.8362 30.7049L64.3682 29.6129C64.7882 29.8276 65.1802 29.9816 65.5442 30.0749C65.9176 30.1776 66.2909 30.2289 66.6642 30.2289C67.2896 30.2289 67.7609 30.0843 68.0782 29.7949C68.4049 29.5056 68.5682 29.0809 68.5682 28.5209V27.7089C67.9429 28.2036 67.2289 28.4509 66.4262 28.4509C65.7729 28.4509 65.1709 28.2923 64.6202 27.9749C64.0789 27.6483 63.6496 27.2096 63.3322 26.6589C63.0149 26.0989 62.8562 25.4829 62.8562 24.8109C62.8562 24.1296 63.0149 23.5136 63.3322 22.9629C63.6589 22.4029 64.0929 21.9643 64.6342 21.6469C65.1849 21.3203 65.8009 21.1569 66.4822 21.1569C66.8649 21.1569 67.2336 21.2223 67.5882 21.3529C67.9522 21.4743 68.2836 21.6516 68.5822 21.8849V21.2829H69.9682V28.5209C69.9682 29.4449 69.6836 30.1543 69.1142 30.6489C68.5542 31.1529 67.7516 31.4049 66.7062 31.4049ZM66.6082 27.2469C67.0189 27.2469 67.3922 27.1769 67.7282 27.0369C68.0642 26.8876 68.3442 26.6776 68.5682 26.4069V23.2149C68.3442 22.9536 68.0596 22.7483 67.7142 22.5989C67.3782 22.4496 67.0096 22.3749 66.6082 22.3749C66.1602 22.3749 65.7542 22.4823 65.3902 22.6969C65.0356 22.9116 64.7509 23.2056 64.5362 23.5789C64.3309 23.9429 64.2282 24.3536 64.2282 24.8109C64.2282 25.2683 64.3309 25.6836 64.5362 26.0569C64.7509 26.4209 65.0356 26.7103 65.3902 26.9249C65.7542 27.1396 66.1602 27.2469 66.6082 27.2469ZM71.3338 28.4089V21.2829H72.7338V22.0109C73.2844 21.4323 73.9984 21.1429 74.8758 21.1429C75.4264 21.1429 75.9071 21.2596 76.3178 21.4929C76.7378 21.7263 77.0644 22.0529 77.2978 22.4729C77.5404 22.8929 77.6618 23.3783 77.6618 23.9289V28.4089H76.2618V24.1669C76.2618 23.6069 76.1031 23.1683 75.7858 22.8509C75.4778 22.5243 75.0438 22.3609 74.4838 22.3609C74.1104 22.3609 73.7744 22.4403 73.4758 22.5989C73.1771 22.7576 72.9298 22.9863 72.7338 23.2849V28.4089H71.3338ZM81.4471 28.5489C80.8311 28.5489 80.2525 28.4603 79.7111 28.2829C79.1791 28.0963 78.7171 27.8349 78.3251 27.4989L79.0951 26.5749C79.4591 26.8643 79.8325 27.0883 80.2151 27.2469C80.6071 27.3963 81.0038 27.4709 81.4051 27.4709C81.9091 27.4709 82.3198 27.3729 82.6371 27.1769C82.9545 26.9809 83.1131 26.7243 83.1131 26.4069C83.1131 26.1456 83.0198 25.9403 82.8331 25.7909C82.6465 25.6416 82.3571 25.5389 81.9651 25.4829L80.6771 25.3009C79.9678 25.1983 79.4358 24.9789 79.0811 24.6429C78.7265 24.3069 78.5491 23.8589 78.5491 23.2989C78.5491 22.8696 78.6658 22.4963 78.8991 22.1789C79.1325 21.8523 79.4591 21.6003 79.8791 21.4229C80.2991 21.2363 80.7891 21.1429 81.3491 21.1429C81.8625 21.1429 82.3571 21.2176 82.8331 21.3669C83.3091 21.5163 83.7665 21.7496 84.2051 22.0669L83.4911 22.9909C83.0991 22.7296 82.7165 22.5383 82.3431 22.4169C81.9791 22.2956 81.6105 22.2349 81.2371 22.2349C80.8078 22.2349 80.4625 22.3283 80.2011 22.5149C79.9398 22.6923 79.8091 22.9256 79.8091 23.2149C79.8091 23.4763 79.8978 23.6816 80.0751 23.8309C80.2618 23.9709 80.5651 24.0689 80.9851 24.1249L82.2731 24.3069C82.9825 24.4096 83.5191 24.6289 83.8831 24.9649C84.2471 25.2916 84.4291 25.7349 84.4291 26.2949C84.4291 26.7243 84.2985 27.1116 84.0371 27.4569C83.7758 27.7929 83.4211 28.0589 82.9731 28.2549C82.5251 28.4509 82.0165 28.5489 81.4471 28.5489Z" fill="#696F79"/>
<path d="M28.7416 71.4089V65.4249H16.0056V63.5689L28.5816 49.0089H31.0776V63.4089H33.7656V65.4249H31.0776V71.4089H28.7416ZM18.8856 63.4089H28.7416V51.9849L18.8856 63.4089Z" fill="#FF4400"/>
<rect x="15.1416" y="87.4089" width="28.1029" height="23" rx="6" fill="#FF3C00" fill-opacity="0.08"/>
<rect x="15.6416" y="87.9089" width="27.1029" height="22" rx="5.5" stroke="#FF3C00" stroke-opacity="0.08"/>
<path d="M24.6164 100.712C24.9094 101.063 25.445 101.072 25.7501 100.732L28.0506 98.1676C28.4797 97.6892 28.1479 96.9281 27.5054 96.9169L22.9953 96.8381C22.3528 96.8269 21.9946 97.576 22.4067 98.069L24.6164 100.712Z" fill="#44475C"/>
<path d="M34.8506 102.409V95.5559L33.5526 96.1279V95.3909L35.1366 94.7089H35.6536V102.409H34.8506Z" fill="#44475C"/>
<rect x="118.042" y="1.40894" width="133" height="122" rx="20" fill="#A83500" fill-opacity="0.09"/>
<path d="M136.724 28.4089V19.9109H133.28V18.6089H141.638V19.9109H138.194V28.4089H136.724ZM142.421 28.4089V21.2829H143.821V28.4089H142.421ZM143.121 20.1349C142.887 20.1349 142.687 20.0509 142.519 19.8829C142.351 19.7056 142.267 19.5003 142.267 19.2669C142.267 19.0243 142.351 18.8236 142.519 18.6649C142.687 18.4969 142.887 18.4129 143.121 18.4129C143.363 18.4129 143.569 18.4969 143.737 18.6649C143.905 18.8236 143.989 19.0243 143.989 19.2669C143.989 19.5003 143.905 19.7056 143.737 19.8829C143.569 20.0509 143.363 20.1349 143.121 20.1349ZM145.189 28.4089V21.2829H146.589V21.9689C147.121 21.4183 147.789 21.1429 148.591 21.1429C149.077 21.1429 149.506 21.2503 149.879 21.4649C150.262 21.6796 150.565 21.9689 150.789 22.3329C151.088 21.9409 151.438 21.6469 151.839 21.4509C152.241 21.2456 152.693 21.1429 153.197 21.1429C153.729 21.1429 154.191 21.2596 154.583 21.4929C154.985 21.7263 155.297 22.0529 155.521 22.4729C155.755 22.8929 155.871 23.3783 155.871 23.9289V28.4089H154.471V24.1669C154.471 23.6069 154.322 23.1683 154.023 22.8509C153.734 22.5243 153.337 22.3609 152.833 22.3609C152.488 22.3609 152.175 22.4403 151.895 22.5989C151.615 22.7576 151.373 23.0003 151.167 23.3269C151.186 23.4203 151.2 23.5183 151.209 23.6209C151.219 23.7236 151.223 23.8263 151.223 23.9289V28.4089H149.837V24.1669C149.837 23.6069 149.688 23.1683 149.389 22.8509C149.1 22.5243 148.703 22.3609 148.199 22.3609C147.863 22.3609 147.56 22.4356 147.289 22.5849C147.019 22.7249 146.785 22.9396 146.589 23.2289V28.4089H145.189ZM160.616 28.5349C159.916 28.5349 159.282 28.3716 158.712 28.0449C158.152 27.7183 157.704 27.2749 157.368 26.7149C157.042 26.1549 156.878 25.5296 156.878 24.8389C156.878 24.1576 157.037 23.5416 157.354 22.9909C157.672 22.4309 158.101 21.9876 158.642 21.6609C159.184 21.3249 159.786 21.1569 160.448 21.1569C161.111 21.1569 161.699 21.3249 162.212 21.6609C162.726 21.9876 163.132 22.4356 163.43 23.0049C163.738 23.5649 163.892 24.1996 163.892 24.9089V25.3009H158.278C158.353 25.6929 158.498 26.0429 158.712 26.3509C158.936 26.6589 159.216 26.9016 159.552 27.0789C159.898 27.2563 160.271 27.3449 160.672 27.3449C161.018 27.3449 161.349 27.2936 161.666 27.1909C161.993 27.0789 162.264 26.9203 162.478 26.7149L163.374 27.5969C162.954 27.9143 162.52 28.1523 162.072 28.3109C161.634 28.4603 161.148 28.5349 160.616 28.5349ZM158.292 24.2509H162.506C162.45 23.8776 162.32 23.5509 162.114 23.2709C161.918 22.9816 161.671 22.7576 161.372 22.5989C161.083 22.4309 160.766 22.3469 160.42 22.3469C160.066 22.3469 159.739 22.4263 159.44 22.5849C159.142 22.7436 158.89 22.9676 158.684 23.2569C158.488 23.5369 158.358 23.8683 158.292 24.2509Z" fill="#696F79"/>
<path d="M142.13 71.7609C140.594 71.7609 139.154 71.4943 137.81 70.9609C136.488 70.4276 135.314 69.6383 134.29 68.5929L135.826 67.0889C136.765 68.0276 137.725 68.7103 138.706 69.1369C139.709 69.5423 140.84 69.7449 142.098 69.7449C143.186 69.7449 144.146 69.5529 144.978 69.1689C145.832 68.7849 146.493 68.2516 146.962 67.5689C147.432 66.8863 147.666 66.1076 147.666 65.2329C147.666 64.4009 147.453 63.6649 147.026 63.0249C146.621 62.3636 146.056 61.8516 145.33 61.4889C144.605 61.1263 143.773 60.9449 142.834 60.9449H140.178V58.9609H142.738C143.954 58.9609 144.936 58.5876 145.682 57.8409C146.45 57.0943 146.834 56.1236 146.834 54.9289C146.834 54.1396 146.621 53.4249 146.194 52.7849C145.768 52.1449 145.181 51.6436 144.434 51.2809C143.709 50.8969 142.888 50.7049 141.97 50.7049C140.818 50.7049 139.784 50.9183 138.866 51.3449C137.97 51.7503 137.053 52.4436 136.114 53.4249L134.578 51.8889C135.581 50.8223 136.712 50.0223 137.97 49.4889C139.229 48.9343 140.573 48.6569 142.002 48.6569C143.368 48.6569 144.584 48.9236 145.65 49.4569C146.738 49.9903 147.592 50.7263 148.21 51.6649C148.829 52.5823 149.138 53.6276 149.138 54.8009C149.138 55.9743 148.754 57.0303 147.986 57.9689C147.218 58.8863 146.205 59.5263 144.946 59.8889C146.461 60.2303 147.677 60.8916 148.594 61.8729C149.512 62.8543 149.97 63.9956 149.97 65.2969C149.97 66.5343 149.629 67.6436 148.946 68.6249C148.285 69.6063 147.357 70.3743 146.162 70.9289C144.989 71.4836 143.645 71.7609 142.13 71.7609ZM152.723 71.4089V49.0089L155.091 48.4649V57.2649C156.35 55.7929 158.035 55.0569 160.147 55.0569C161.363 55.0569 162.43 55.3236 163.347 55.8569C164.286 56.3689 165.011 57.0943 165.523 58.0329C166.057 58.9503 166.323 60.0276 166.323 61.2649V71.4089H163.987V61.7449C163.987 60.3156 163.582 59.1956 162.771 58.3849C161.982 57.5529 160.894 57.1369 159.507 57.1369C158.547 57.1369 157.694 57.3503 156.947 57.7769C156.201 58.2036 155.582 58.8116 155.091 59.6009V71.4089H152.723ZM174.793 71.4089V69.7129L183.753 59.9209C184.457 59.1529 185.001 58.4809 185.385 57.9049C185.79 57.3076 186.068 56.7529 186.217 56.2409C186.388 55.7289 186.473 55.1849 186.473 54.6089C186.473 53.4783 186.025 52.5503 185.129 51.8249C184.254 51.0783 183.134 50.7049 181.769 50.7049C180.724 50.7049 179.753 50.9076 178.857 51.3129C177.961 51.7183 176.958 52.4223 175.849 53.4249L174.505 51.8249C175.678 50.7583 176.862 49.9689 178.057 49.4569C179.252 48.9236 180.5 48.6569 181.801 48.6569C183.145 48.6569 184.34 48.9129 185.385 49.4249C186.43 49.9156 187.252 50.5983 187.849 51.4729C188.446 52.3476 188.745 53.3503 188.745 54.4809C188.745 55.2276 188.649 55.9209 188.457 56.5609C188.265 57.1796 187.924 57.8516 187.433 58.5769C186.942 59.2809 186.238 60.1343 185.321 61.1369L177.673 69.4249L189.225 69.3929V71.4089H174.793ZM202.396 71.4089V65.4249H189.66V63.5689L202.236 49.0089H204.732V63.4089H207.42V65.4249H204.732V71.4089H202.396ZM192.54 63.4089H202.396V51.9849L192.54 63.4089ZM209.665 71.4089V55.3769H212.033V57.1369C213.249 55.7503 214.817 55.0569 216.737 55.0569C217.867 55.0569 218.87 55.3236 219.745 55.8569C220.619 56.3689 221.302 57.0729 221.793 57.9689C222.454 56.9876 223.243 56.2623 224.161 55.7929C225.078 55.3023 226.123 55.0569 227.297 55.0569C228.47 55.0569 229.494 55.3236 230.369 55.8569C231.243 56.3689 231.926 57.0943 232.417 58.0329C232.929 58.9503 233.185 60.0276 233.185 61.2649V71.4089H230.849V61.7449C230.849 60.3156 230.475 59.1956 229.729 58.3849C228.982 57.5529 227.969 57.1369 226.689 57.1369C225.814 57.1369 225.014 57.3609 224.289 57.8089C223.563 58.2356 222.945 58.8863 222.433 59.7609C222.475 59.9956 222.507 60.2409 222.529 60.4969C222.571 60.7316 222.593 60.9876 222.593 61.2649V71.4089H220.257V61.7449C220.257 60.3156 219.883 59.1956 219.137 58.3849C218.39 57.5529 217.387 57.1369 216.129 57.1369C215.275 57.1369 214.497 57.3396 213.793 57.7449C213.11 58.1289 212.523 58.7049 212.033 59.4729V71.4089H209.665Z" fill="#FF4400"/>
<rect x="133.042" y="87.4089" width="58.1029" height="23" rx="6" fill="#FF3C00" fill-opacity="0.08"/>
<rect x="133.542" y="87.9089" width="57.1029" height="22" rx="5.5" stroke="#FF3C00" stroke-opacity="0.08"/>
<path d="M143.67 97.1055C143.377 96.755 142.841 96.7456 142.536 97.0857L140.235 99.6503C139.806 100.129 140.138 100.89 140.781 100.901L145.291 100.98C145.933 100.991 146.292 100.242 145.879 99.7488L143.67 97.1055Z" fill="#44475C"/>
<path d="M155.821 102.409V100.352H151.443V99.7139L155.766 94.7089H156.624V99.6589H157.548V100.352H156.624V102.409H155.821ZM152.433 99.6589H155.821V95.7319L152.433 99.6589ZM158.429 102.409V94.7089L159.243 94.5219V97.5469C159.676 97.0409 160.255 96.7879 160.981 96.7879C161.399 96.7879 161.766 96.8796 162.081 97.0629C162.404 97.2389 162.653 97.4883 162.829 97.8109C163.012 98.1263 163.104 98.4966 163.104 98.9219V102.409H162.301V99.0869C162.301 98.5956 162.162 98.2106 161.883 97.9319C161.612 97.6459 161.238 97.5029 160.761 97.5029C160.431 97.5029 160.138 97.5763 159.881 97.7229C159.624 97.8696 159.412 98.0786 159.243 98.3499V102.409H158.429ZM167.302 102.409V95.5559L166.004 96.1279V95.3909L167.588 94.7089H168.105V102.409H167.302ZM171.747 94.5879C172.341 94.5879 172.862 94.7456 173.309 95.0609C173.764 95.3763 174.119 95.8126 174.376 96.3699C174.633 96.9199 174.761 97.5579 174.761 98.2839C174.761 99.1346 174.618 99.8789 174.332 100.517C174.046 101.148 173.643 101.639 173.122 101.991C172.609 102.343 172.004 102.519 171.307 102.519C170.992 102.519 170.673 102.475 170.35 102.387C170.035 102.292 169.752 102.163 169.503 102.002L169.899 101.386C170.126 101.518 170.365 101.621 170.614 101.694C170.871 101.767 171.124 101.804 171.373 101.804C171.901 101.804 172.356 101.668 172.737 101.397C173.126 101.118 173.426 100.722 173.639 100.209C173.852 99.6883 173.962 99.0723 173.969 98.3609C173.683 98.7276 173.342 99.0136 172.946 99.2189C172.55 99.4243 172.139 99.5269 171.714 99.5269C171.215 99.5269 170.772 99.4243 170.383 99.2189C169.994 99.0063 169.69 98.7203 169.47 98.3609C169.25 98.0016 169.14 97.5909 169.14 97.1289C169.14 96.6376 169.254 96.2013 169.481 95.8199C169.708 95.4386 170.016 95.1379 170.405 94.9179C170.801 94.6979 171.248 94.5879 171.747 94.5879ZM171.824 98.8779C172.227 98.8779 172.612 98.7789 172.979 98.5809C173.353 98.3756 173.676 98.0969 173.947 97.7449C173.896 97.2463 173.771 96.8136 173.573 96.4469C173.375 96.0803 173.122 95.7943 172.814 95.5889C172.506 95.3836 172.154 95.2809 171.758 95.2809C171.413 95.2809 171.102 95.3616 170.823 95.5229C170.544 95.6769 170.324 95.8933 170.163 96.1719C170.009 96.4433 169.932 96.7549 169.932 97.1069C169.932 97.4516 170.013 97.7596 170.174 98.0309C170.335 98.2949 170.559 98.5039 170.845 98.6579C171.131 98.8046 171.457 98.8779 171.824 98.8779ZM175.864 102.409V96.8979H176.678V97.5029C177.096 97.0263 177.635 96.7879 178.295 96.7879C178.684 96.7879 179.029 96.8796 179.329 97.0629C179.63 97.2389 179.865 97.4809 180.033 97.7889C180.261 97.4516 180.532 97.2023 180.847 97.0409C181.163 96.8723 181.522 96.7879 181.925 96.7879C182.329 96.7879 182.681 96.8796 182.981 97.0629C183.282 97.2389 183.517 97.4883 183.685 97.8109C183.861 98.1263 183.949 98.4966 183.949 98.9219V102.409H183.146V99.0869C183.146 98.5956 183.018 98.2106 182.761 97.9319C182.505 97.6459 182.156 97.5029 181.716 97.5029C181.416 97.5029 181.141 97.5799 180.891 97.7339C180.642 97.8806 180.429 98.1043 180.253 98.4049C180.268 98.4856 180.279 98.5699 180.286 98.6579C180.301 98.7386 180.308 98.8266 180.308 98.9219V102.409H179.505V99.0869C179.505 98.5956 179.377 98.2106 179.12 97.9319C178.864 97.6459 178.519 97.5029 178.086 97.5029C177.793 97.5029 177.525 97.5726 177.283 97.7119C177.049 97.8439 176.847 98.0419 176.678 98.3059V102.409H175.864Z" fill="#44475C"/>
<rect x="267.941" y="1.40894" width="134" height="122" rx="20" fill="#A83500" fill-opacity="0.09"/>
<path d="M285.405 27.0929H287.421C287.934 27.0929 288.41 27.0043 288.849 26.8269C289.288 26.6403 289.67 26.3883 289.997 26.0709C290.333 25.7443 290.59 25.3663 290.767 24.9369C290.954 24.4983 291.047 24.0223 291.047 23.5089C291.047 23.0049 290.954 22.5336 290.767 22.0949C290.59 21.6563 290.333 21.2783 289.997 20.9609C289.67 20.6343 289.288 20.3823 288.849 20.2049C288.41 20.0183 287.934 19.9249 287.421 19.9249H285.405V27.0929ZM283.935 28.4089V18.6089H287.393C288.13 18.6089 288.812 18.7349 289.437 18.9869C290.062 19.2296 290.608 19.5703 291.075 20.0089C291.542 20.4476 291.906 20.9656 292.167 21.5629C292.428 22.1603 292.559 22.8089 292.559 23.5089C292.559 24.2183 292.428 24.8716 292.167 25.4689C291.915 26.0569 291.556 26.5703 291.089 27.0089C290.622 27.4476 290.072 27.7929 289.437 28.0449C288.812 28.2876 288.13 28.4089 287.393 28.4089H283.935ZM293.659 28.4089V21.2829H295.059V28.4089H293.659ZM294.359 20.1349C294.125 20.1349 293.925 20.0509 293.757 19.8829C293.589 19.7056 293.505 19.5003 293.505 19.2669C293.505 19.0243 293.589 18.8236 293.757 18.6649C293.925 18.4969 294.125 18.4129 294.359 18.4129C294.601 18.4129 294.807 18.4969 294.975 18.6649C295.143 18.8236 295.227 19.0243 295.227 19.2669C295.227 19.5003 295.143 19.7056 294.975 19.8829C294.807 20.0509 294.601 20.1349 294.359 20.1349ZM298.878 28.5489C298.262 28.5489 297.683 28.4603 297.142 28.2829C296.61 28.0963 296.148 27.8349 295.756 27.4989L296.526 26.5749C296.89 26.8643 297.263 27.0883 297.646 27.2469C298.038 27.3963 298.434 27.4709 298.836 27.4709C299.34 27.4709 299.75 27.3729 300.068 27.1769C300.385 26.9809 300.544 26.7243 300.544 26.4069C300.544 26.1456 300.45 25.9403 300.264 25.7909C300.077 25.6416 299.788 25.5389 299.396 25.4829L298.108 25.3009C297.398 25.1983 296.866 24.9789 296.512 24.6429C296.157 24.3069 295.98 23.8589 295.98 23.2989C295.98 22.8696 296.096 22.4963 296.33 22.1789C296.563 21.8523 296.89 21.6003 297.31 21.4229C297.73 21.2363 298.22 21.1429 298.78 21.1429C299.293 21.1429 299.788 21.2176 300.264 21.3669C300.74 21.5163 301.197 21.7496 301.636 22.0669L300.922 22.9909C300.53 22.7296 300.147 22.5383 299.774 22.4169C299.41 22.2956 299.041 22.2349 298.668 22.2349C298.238 22.2349 297.893 22.3283 297.632 22.5149C297.37 22.6923 297.24 22.9256 297.24 23.2149C297.24 23.4763 297.328 23.6816 297.506 23.8309C297.692 23.9709 297.996 24.0689 298.416 24.1249L299.704 24.3069C300.413 24.4096 300.95 24.6289 301.314 24.9649C301.678 25.2916 301.86 25.7349 301.86 26.2949C301.86 26.7243 301.729 27.1116 301.468 27.4569C301.206 27.7929 300.852 28.0589 300.404 28.2549C299.956 28.4509 299.447 28.5489 298.878 28.5489ZM305.571 28.5349C304.88 28.5349 304.353 28.3763 303.989 28.0589C303.625 27.7323 303.443 27.2609 303.443 26.6449V22.4589H301.931V21.2829H303.443V19.4629L304.829 19.1269V21.2829H306.929V22.4589H304.829V26.3229C304.829 26.6869 304.908 26.9483 305.067 27.1069C305.235 27.2563 305.505 27.3309 305.879 27.3309C306.075 27.3309 306.247 27.3169 306.397 27.2889C306.555 27.2609 306.723 27.2189 306.901 27.1629V28.3389C306.714 28.4043 306.495 28.4509 306.243 28.4789C306 28.5163 305.776 28.5349 305.571 28.5349ZM309.934 28.5349C309.421 28.5349 308.968 28.4463 308.576 28.2689C308.184 28.0823 307.876 27.8256 307.652 27.4989C307.428 27.1723 307.316 26.7943 307.316 26.3649C307.316 25.6929 307.573 25.1656 308.086 24.7829C308.599 24.3909 309.304 24.1949 310.2 24.1949C310.9 24.1949 311.549 24.3303 312.146 24.6009V23.8449C312.146 23.3316 311.997 22.9489 311.698 22.6969C311.409 22.4449 310.979 22.3189 310.41 22.3189C310.083 22.3189 309.743 22.3703 309.388 22.4729C309.033 22.5663 308.637 22.7156 308.198 22.9209L307.68 21.8709C308.221 21.6189 308.725 21.4369 309.192 21.3249C309.659 21.2036 310.13 21.1429 310.606 21.1429C311.53 21.1429 312.244 21.3623 312.748 21.8009C313.261 22.2396 313.518 22.8649 313.518 23.6769V28.4089H312.146V27.7929C311.829 28.0449 311.488 28.2316 311.124 28.3529C310.76 28.4743 310.363 28.5349 309.934 28.5349ZM308.66 26.3369C308.66 26.6823 308.805 26.9623 309.094 27.1769C309.393 27.3916 309.78 27.4989 310.256 27.4989C310.629 27.4989 310.97 27.4429 311.278 27.3309C311.595 27.2189 311.885 27.0463 312.146 26.8129V25.6089C311.875 25.4503 311.591 25.3383 311.292 25.2729C311.003 25.1983 310.676 25.1609 310.312 25.1609C309.799 25.1609 309.393 25.2683 309.094 25.4829C308.805 25.6883 308.66 25.9729 308.66 26.3369ZM314.851 28.4089V21.2829H316.251V22.0109C316.802 21.4323 317.516 21.1429 318.393 21.1429C318.944 21.1429 319.425 21.2596 319.835 21.4929C320.255 21.7263 320.582 22.0529 320.815 22.4729C321.058 22.8929 321.179 23.3783 321.179 23.9289V28.4089H319.779V24.1669C319.779 23.6069 319.621 23.1683 319.303 22.8509C318.995 22.5243 318.561 22.3609 318.001 22.3609C317.628 22.3609 317.292 22.4403 316.993 22.5989C316.695 22.7576 316.447 22.9863 316.251 23.2849V28.4089H314.851ZM325.861 28.5349C325.179 28.5349 324.559 28.3716 323.999 28.0449C323.439 27.7183 322.995 27.2749 322.669 26.7149C322.351 26.1549 322.193 25.5296 322.193 24.8389C322.193 24.1483 322.356 23.5276 322.683 22.9769C323.009 22.4169 323.448 21.9736 323.999 21.6469C324.559 21.3109 325.179 21.1429 325.861 21.1429C326.402 21.1429 326.92 21.2456 327.415 21.4509C327.919 21.6563 328.353 21.9456 328.717 22.3189L327.849 23.2849C327.578 22.9863 327.275 22.7623 326.939 22.6129C326.603 22.4636 326.253 22.3889 325.889 22.3889C325.459 22.3889 325.067 22.4963 324.713 22.7109C324.367 22.9256 324.092 23.2196 323.887 23.5929C323.681 23.9663 323.579 24.3816 323.579 24.8389C323.579 25.2963 323.681 25.7116 323.887 26.0849C324.092 26.4583 324.372 26.7569 324.727 26.9809C325.081 27.1956 325.478 27.3029 325.917 27.3029C326.281 27.3029 326.621 27.2329 326.939 27.0929C327.256 26.9436 327.555 26.7289 327.835 26.4489L328.689 27.3449C328.315 27.7276 327.881 28.0216 327.387 28.2269C326.901 28.4323 326.393 28.5349 325.861 28.5349ZM332.746 28.5349C332.046 28.5349 331.412 28.3716 330.842 28.0449C330.282 27.7183 329.834 27.2749 329.498 26.7149C329.172 26.1549 329.008 25.5296 329.008 24.8389C329.008 24.1576 329.167 23.5416 329.484 22.9909C329.802 22.4309 330.231 21.9876 330.772 21.6609C331.314 21.3249 331.916 21.1569 332.578 21.1569C333.241 21.1569 333.829 21.3249 334.342 21.6609C334.856 21.9876 335.262 22.4356 335.56 23.0049C335.868 23.5649 336.022 24.1996 336.022 24.9089V25.3009H330.408C330.483 25.6929 330.628 26.0429 330.842 26.3509C331.066 26.6589 331.346 26.9016 331.682 27.0789C332.028 27.2563 332.401 27.3449 332.802 27.3449C333.148 27.3449 333.479 27.2936 333.796 27.1909C334.123 27.0789 334.394 26.9203 334.608 26.7149L335.504 27.5969C335.084 27.9143 334.65 28.1523 334.202 28.3109C333.764 28.4603 333.278 28.5349 332.746 28.5349ZM330.422 24.2509H334.636C334.58 23.8776 334.45 23.5509 334.244 23.2709C334.048 22.9816 333.801 22.7576 333.502 22.5989C333.213 22.4309 332.896 22.3469 332.55 22.3469C332.196 22.3469 331.869 22.4263 331.57 22.5849C331.272 22.7436 331.02 22.9676 330.814 23.2569C330.618 23.5369 330.488 23.8683 330.422 24.2509Z" fill="#696F79"/>
<path d="M284.509 71.4089V69.7129L293.469 59.9209C294.173 59.1529 294.717 58.4809 295.101 57.9049C295.506 57.3076 295.784 56.7529 295.933 56.2409C296.104 55.7289 296.189 55.1849 296.189 54.6089C296.189 53.4783 295.741 52.5503 294.845 51.8249C293.97 51.0783 292.85 50.7049 291.485 50.7049C290.44 50.7049 289.469 50.9076 288.573 51.3129C287.677 51.7183 286.674 52.4223 285.565 53.4249L284.221 51.8249C285.394 50.7583 286.578 49.9689 287.773 49.4569C288.968 48.9236 290.216 48.6569 291.517 48.6569C292.861 48.6569 294.056 48.9129 295.101 49.4249C296.146 49.9156 296.968 50.5983 297.565 51.4729C298.162 52.3476 298.461 53.3503 298.461 54.4809C298.461 55.2276 298.365 55.9209 298.173 56.5609C297.981 57.1796 297.64 57.8516 297.149 58.5769C296.658 59.2809 295.954 60.1343 295.037 61.1369L287.389 69.4249L298.941 69.3929V71.4089H284.509ZM308.189 71.7609C305.245 71.7609 302.706 70.7476 300.573 68.7209L302.013 67.1529C302.994 68.0703 303.965 68.7423 304.925 69.1689C305.906 69.5743 307.005 69.7769 308.221 69.7769C309.309 69.7769 310.269 69.5529 311.101 69.1049C311.933 68.6569 312.573 68.0276 313.021 67.2169C313.49 66.4063 313.725 65.4783 313.725 64.4329C313.725 62.9396 313.213 61.7343 312.189 60.8169C311.186 59.8996 309.863 59.4409 308.221 59.4409C307.367 59.4409 306.535 59.5476 305.725 59.7609C304.914 59.9529 304.071 60.2729 303.197 60.7209L301.597 60.2089L302.109 49.0089H314.845V51.0249H304.093L303.741 58.7689C304.594 58.3423 305.415 58.0436 306.205 57.8729C306.994 57.6809 307.826 57.5849 308.701 57.5849C310.173 57.5849 311.453 57.8729 312.541 58.4489C313.65 59.0036 314.503 59.7929 315.101 60.8169C315.719 61.8196 316.029 62.9929 316.029 64.3369C316.029 65.8089 315.698 67.0996 315.037 68.2089C314.375 69.3183 313.458 70.1929 312.285 70.8329C311.111 71.4516 309.746 71.7609 308.189 71.7609ZM317.148 75.7929L319.004 69.0409H321.564L319.004 75.7929H317.148ZM324.638 71.4089L335.774 51.0249H322.334V49.0089H338.27V50.8009L327.262 71.4089H324.638ZM346.063 71.4089V49.0089L348.431 48.4649V62.6089L356.815 55.3769H359.695L350.895 62.9929L360.111 71.4089H356.879L348.431 63.7289V71.4089H346.063ZM360.916 71.4089V55.3769H363.284V57.1369C364.5 55.7503 366.068 55.0569 367.988 55.0569C369.118 55.0569 370.121 55.3236 370.996 55.8569C371.87 56.3689 372.553 57.0729 373.044 57.9689C373.705 56.9876 374.494 56.2623 375.412 55.7929C376.329 55.3023 377.374 55.0569 378.548 55.0569C379.721 55.0569 380.745 55.3236 381.62 55.8569C382.494 56.3689 383.177 57.0943 383.668 58.0329C384.18 58.9503 384.436 60.0276 384.436 61.2649V71.4089H382.1V61.7449C382.1 60.3156 381.726 59.1956 380.98 58.3849C380.233 57.5529 379.22 57.1369 377.94 57.1369C377.065 57.1369 376.265 57.3609 375.54 57.8089C374.814 58.2356 374.196 58.8863 373.684 59.7609C373.726 59.9956 373.758 60.2409 373.78 60.4969C373.822 60.7316 373.844 60.9876 373.844 61.2649V71.4089H371.508V61.7449C371.508 60.3156 371.134 59.1956 370.388 58.3849C369.641 57.5529 368.638 57.1369 367.38 57.1369C366.526 57.1369 365.748 57.3396 365.044 57.7449C364.361 58.1289 363.774 58.7049 363.284 59.4729V71.4089H360.916Z" fill="#FF4400"/>
<rect x="282.941" y="87.4089" width="63.1029" height="23" rx="6" fill="#FF3C00" fill-opacity="0.08"/>
<rect x="283.441" y="87.9089" width="62.1029" height="22" rx="5.5" stroke="#FF3C00" stroke-opacity="0.08"/>
<path d="M293.568 97.1055C293.275 96.755 292.74 96.7456 292.434 97.0857L290.134 99.6503C289.705 100.129 290.037 100.89 290.679 100.901L295.189 100.98C295.832 100.991 296.19 100.242 295.778 99.7488L293.568 97.1055Z" fill="#44475C"/>
<path d="M305.719 102.409V100.352H301.341V99.7139L305.664 94.7089H306.522V99.6589H307.446V100.352H306.522V102.409H305.719ZM302.331 99.6589H305.719V95.7319L302.331 99.6589ZM310.827 102.53C310.299 102.53 309.83 102.435 309.419 102.244C309.008 102.053 308.682 101.793 308.44 101.463C308.205 101.126 308.088 100.748 308.088 100.33C308.088 100.015 308.165 99.7249 308.319 99.4609C308.473 99.1896 308.686 98.9586 308.957 98.7679C309.236 98.5699 309.551 98.4306 309.903 98.3499C309.456 98.2253 309.089 98.0016 308.803 97.6789C308.524 97.3563 308.385 96.9933 308.385 96.5899C308.385 96.2086 308.491 95.8676 308.704 95.5669C308.917 95.2663 309.206 95.0279 309.573 94.8519C309.947 94.6759 310.365 94.5879 310.827 94.5879C311.296 94.5879 311.714 94.6759 312.081 94.8519C312.448 95.0279 312.737 95.2663 312.95 95.5669C313.163 95.8676 313.269 96.2086 313.269 96.5899C313.269 96.9933 313.13 97.3563 312.851 97.6789C312.572 98.0016 312.206 98.2253 311.751 98.3499C312.286 98.4746 312.723 98.7203 313.06 99.0869C313.397 99.4463 313.566 99.8606 313.566 100.33C313.566 100.748 313.449 101.126 313.214 101.463C312.979 101.793 312.653 102.053 312.235 102.244C311.824 102.435 311.355 102.53 310.827 102.53ZM310.827 98.0199C311.142 98.0199 311.425 97.9576 311.674 97.8329C311.931 97.7083 312.132 97.5433 312.279 97.3379C312.426 97.1253 312.499 96.8869 312.499 96.6229C312.499 96.3589 312.426 96.1206 312.279 95.9079C312.132 95.6953 311.931 95.5303 311.674 95.4129C311.425 95.2883 311.142 95.2259 310.827 95.2259C310.512 95.2259 310.226 95.2883 309.969 95.4129C309.72 95.5303 309.522 95.6953 309.375 95.9079C309.228 96.1206 309.155 96.3589 309.155 96.6229C309.155 96.8869 309.228 97.1253 309.375 97.3379C309.522 97.5433 309.72 97.7083 309.969 97.8329C310.226 97.9576 310.512 98.0199 310.827 98.0199ZM310.827 101.892C311.201 101.892 311.535 101.822 311.828 101.683C312.121 101.544 312.352 101.353 312.521 101.111C312.697 100.869 312.785 100.598 312.785 100.297C312.785 99.9963 312.697 99.7249 312.521 99.4829C312.352 99.2409 312.121 99.0503 311.828 98.9109C311.535 98.7716 311.201 98.7019 310.827 98.7019C310.453 98.7019 310.119 98.7716 309.826 98.9109C309.533 99.0503 309.298 99.2409 309.122 99.4829C308.953 99.7249 308.869 99.9963 308.869 100.297C308.869 100.598 308.953 100.869 309.122 101.111C309.298 101.353 309.533 101.544 309.826 101.683C310.119 101.822 310.453 101.892 310.827 101.892ZM314.279 103.916L314.917 101.595H315.797L314.917 103.916H314.279ZM319.083 94.5879C319.677 94.5879 320.198 94.7456 320.645 95.0609C321.1 95.3763 321.456 95.8126 321.712 96.3699C321.969 96.9199 322.097 97.5579 322.097 98.2839C322.097 99.1346 321.954 99.8789 321.668 100.517C321.382 101.148 320.979 101.639 320.458 101.991C319.945 102.343 319.34 102.519 318.643 102.519C318.328 102.519 318.009 102.475 317.686 102.387C317.371 102.292 317.089 102.163 316.839 102.002L317.235 101.386C317.463 101.518 317.701 101.621 317.95 101.694C318.207 101.767 318.46 101.804 318.709 101.804C319.237 101.804 319.692 101.668 320.073 101.397C320.462 101.118 320.763 100.722 320.975 100.209C321.188 99.6883 321.298 99.0723 321.305 98.3609C321.019 98.7276 320.678 99.0136 320.282 99.2189C319.886 99.4243 319.476 99.5269 319.05 99.5269C318.552 99.5269 318.108 99.4243 317.719 99.2189C317.331 99.0063 317.026 98.7203 316.806 98.3609C316.586 98.0016 316.476 97.5909 316.476 97.1289C316.476 96.6376 316.59 96.2013 316.817 95.8199C317.045 95.4386 317.353 95.1379 317.741 94.9179C318.137 94.6979 318.585 94.5879 319.083 94.5879ZM319.16 98.8779C319.564 98.8779 319.949 98.7789 320.315 98.5809C320.689 98.3756 321.012 98.0969 321.283 97.7449C321.232 97.2463 321.107 96.8136 320.909 96.4469C320.711 96.0803 320.458 95.7943 320.15 95.5889C319.842 95.3836 319.49 95.2809 319.094 95.2809C318.75 95.2809 318.438 95.3616 318.159 95.5229C317.881 95.6769 317.661 95.8933 317.499 96.1719C317.345 96.4433 317.268 96.7549 317.268 97.1069C317.268 97.4516 317.349 97.7596 317.51 98.0309C317.672 98.2949 317.895 98.5039 318.181 98.6579C318.467 98.8046 318.794 98.8779 319.16 98.8779ZM325.344 102.409V94.7089L326.158 94.5219V99.3839L329.04 96.8979H330.03L327.005 99.5159L330.173 102.409H329.062L326.158 99.7689V102.409H325.344ZM330.56 102.409V96.8979H331.374V97.5029C331.792 97.0263 332.331 96.7879 332.991 96.7879C333.379 96.7879 333.724 96.8796 334.025 97.0629C334.325 97.2389 334.56 97.4809 334.729 97.7889C334.956 97.4516 335.227 97.2023 335.543 97.0409C335.858 96.8723 336.217 96.7879 336.621 96.7879C337.024 96.7879 337.376 96.8796 337.677 97.0629C337.977 97.2389 338.212 97.4883 338.381 97.8109C338.557 98.1263 338.645 98.4966 338.645 98.9219V102.409H337.842V99.0869C337.842 98.5956 337.713 98.2106 337.457 97.9319C337.2 97.6459 336.852 97.5029 336.412 97.5029C336.111 97.5029 335.836 97.5799 335.587 97.7339C335.337 97.8806 335.125 98.1043 334.949 98.4049C334.963 98.4856 334.974 98.5699 334.982 98.6579C334.996 98.7386 335.004 98.8266 335.004 98.9219V102.409H334.201V99.0869C334.201 98.5956 334.072 98.2106 333.816 97.9319C333.559 97.6459 333.214 97.5029 332.782 97.5029C332.488 97.5029 332.221 97.5726 331.979 97.7119C331.744 97.8439 331.542 98.0419 331.374 98.3059V102.409H330.56Z" fill="#44475C"/>
<rect x="419" y="1.40894" width="133" height="122" rx="20" fill="#A83500" fill-opacity="0.09"/>
<path d="M434.994 28.4089V18.6089H436.968L440.034 24.8809L443.1 18.6089H445.06V28.4089H443.674V20.4009L440.02 27.7089L436.366 20.4009V28.4089H434.994ZM449.993 28.5489C449.302 28.5489 448.672 28.3856 448.103 28.0589C447.543 27.7323 447.099 27.2889 446.773 26.7289C446.446 26.1689 446.283 25.5436 446.283 24.8529C446.283 24.1623 446.446 23.5369 446.773 22.9769C447.099 22.4169 447.543 21.9736 448.103 21.6469C448.672 21.3109 449.302 21.1429 449.993 21.1429C450.693 21.1429 451.323 21.3109 451.883 21.6469C452.443 21.9736 452.886 22.4169 453.213 22.9769C453.539 23.5369 453.703 24.1623 453.703 24.8529C453.703 25.5436 453.539 26.1689 453.213 26.7289C452.886 27.2889 452.443 27.7323 451.883 28.0589C451.323 28.3856 450.693 28.5489 449.993 28.5489ZM449.993 27.3169C450.431 27.3169 450.828 27.2096 451.183 26.9949C451.537 26.7709 451.817 26.4723 452.023 26.0989C452.228 25.7256 452.331 25.3056 452.331 24.8389C452.331 24.3816 452.223 23.9709 452.009 23.6069C451.803 23.2336 451.523 22.9349 451.169 22.7109C450.823 22.4869 450.431 22.3749 449.993 22.3749C449.554 22.3749 449.157 22.4869 448.803 22.7109C448.457 22.9349 448.177 23.2336 447.963 23.6069C447.757 23.9709 447.655 24.3816 447.655 24.8389C447.655 25.3056 447.757 25.7256 447.963 26.0989C448.168 26.4723 448.448 26.7709 448.803 26.9949C449.157 27.2096 449.554 27.3169 449.993 27.3169ZM454.746 28.4089V21.2829H456.146V22.0109C456.697 21.4323 457.411 21.1429 458.288 21.1429C458.839 21.1429 459.32 21.2596 459.73 21.4929C460.15 21.7263 460.477 22.0529 460.71 22.4729C460.953 22.8929 461.074 23.3783 461.074 23.9289V28.4089H459.674V24.1669C459.674 23.6069 459.516 23.1683 459.198 22.8509C458.89 22.5243 458.456 22.3609 457.896 22.3609C457.523 22.3609 457.187 22.4403 456.888 22.5989C456.59 22.7576 456.342 22.9863 456.146 23.2849V28.4089H454.746ZM465.826 28.5349C465.126 28.5349 464.491 28.3716 463.922 28.0449C463.362 27.7183 462.914 27.2749 462.578 26.7149C462.251 26.1549 462.088 25.5296 462.088 24.8389C462.088 24.1576 462.246 23.5416 462.564 22.9909C462.881 22.4309 463.31 21.9876 463.852 21.6609C464.393 21.3249 464.995 21.1569 465.658 21.1569C466.32 21.1569 466.908 21.3249 467.422 21.6609C467.935 21.9876 468.341 22.4356 468.64 23.0049C468.948 23.5649 469.102 24.1996 469.102 24.9089V25.3009H463.488C463.562 25.6929 463.707 26.0429 463.922 26.3509C464.146 26.6589 464.426 26.9016 464.762 27.0789C465.107 27.2563 465.48 27.3449 465.882 27.3449C466.227 27.3449 466.558 27.2936 466.876 27.1909C467.202 27.0789 467.473 26.9203 467.688 26.7149L468.584 27.5969C468.164 27.9143 467.73 28.1523 467.282 28.3109C466.843 28.4603 466.358 28.5349 465.826 28.5349ZM463.502 24.2509H467.716C467.66 23.8776 467.529 23.5509 467.324 23.2709C467.128 22.9816 466.88 22.7576 466.582 22.5989C466.292 22.4309 465.975 22.3469 465.63 22.3469C465.275 22.3469 464.948 22.4263 464.65 22.5849C464.351 22.7436 464.099 22.9676 463.894 23.2569C463.698 23.5369 463.567 23.8683 463.502 24.2509ZM470.426 31.4189C470.277 31.4189 470.137 31.4096 470.006 31.3909C469.875 31.3816 469.768 31.3629 469.684 31.3349V30.1029C469.852 30.1403 470.057 30.1589 470.3 30.1589C470.953 30.1589 471.425 29.8089 471.714 29.1089L472.022 28.4229L469.166 21.2829H470.72L472.792 26.7149L475.088 21.2829H476.6L473.156 29.2909C472.932 29.7949 472.694 30.2009 472.442 30.5089C472.19 30.8263 471.901 31.0549 471.574 31.1949C471.247 31.3443 470.865 31.4189 470.426 31.4189ZM479.835 28.4089V21.2829H481.235V22.1929C481.459 21.8569 481.735 21.5956 482.061 21.4089C482.397 21.2129 482.775 21.1149 483.195 21.1149C483.485 21.1243 483.723 21.1663 483.909 21.2409V22.5009C483.779 22.4449 483.643 22.4076 483.503 22.3889C483.363 22.3609 483.223 22.3469 483.083 22.3469C482.673 22.3469 482.309 22.4589 481.991 22.6829C481.674 22.8976 481.422 23.2149 481.235 23.6349V28.4089H479.835ZM486.718 28.5349C486.204 28.5349 485.752 28.4463 485.36 28.2689C484.968 28.0823 484.66 27.8256 484.436 27.4989C484.212 27.1723 484.1 26.7943 484.1 26.3649C484.1 25.6929 484.356 25.1656 484.87 24.7829C485.383 24.3909 486.088 24.1949 486.984 24.1949C487.684 24.1949 488.332 24.3303 488.93 24.6009V23.8449C488.93 23.3316 488.78 22.9489 488.482 22.6969C488.192 22.4449 487.763 22.3189 487.194 22.3189C486.867 22.3189 486.526 22.3703 486.172 22.4729C485.817 22.5663 485.42 22.7156 484.982 22.9209L484.464 21.8709C485.005 21.6189 485.509 21.4369 485.976 21.3249C486.442 21.2036 486.914 21.1429 487.39 21.1429C488.314 21.1429 489.028 21.3623 489.532 21.8009C490.045 22.2396 490.302 22.8649 490.302 23.6769V28.4089H488.93V27.7929C488.612 28.0449 488.272 28.2316 487.908 28.3529C487.544 28.4743 487.147 28.5349 486.718 28.5349ZM485.444 26.3369C485.444 26.6823 485.588 26.9623 485.878 27.1769C486.176 27.3916 486.564 27.4989 487.04 27.4989C487.413 27.4989 487.754 27.4429 488.062 27.3309C488.379 27.2189 488.668 27.0463 488.93 26.8129V25.6089C488.659 25.4503 488.374 25.3383 488.076 25.2729C487.786 25.1983 487.46 25.1609 487.096 25.1609C486.582 25.1609 486.176 25.2683 485.878 25.4829C485.588 25.6883 485.444 25.9729 485.444 26.3369ZM491.635 28.4089V21.2829H493.035V28.4089H491.635ZM492.335 20.1349C492.101 20.1349 491.901 20.0509 491.733 19.8829C491.565 19.7056 491.481 19.5003 491.481 19.2669C491.481 19.0243 491.565 18.8236 491.733 18.6649C491.901 18.4969 492.101 18.4129 492.335 18.4129C492.577 18.4129 492.783 18.4969 492.951 18.6649C493.119 18.8236 493.203 19.0243 493.203 19.2669C493.203 19.5003 493.119 19.7056 492.951 19.8829C492.783 20.0509 492.577 20.1349 492.335 20.1349ZM496.854 28.5489C496.238 28.5489 495.659 28.4603 495.118 28.2829C494.586 28.0963 494.124 27.8349 493.732 27.4989L494.502 26.5749C494.866 26.8643 495.239 27.0883 495.622 27.2469C496.014 27.3963 496.41 27.4709 496.812 27.4709C497.316 27.4709 497.726 27.3729 498.044 27.1769C498.361 26.9809 498.52 26.7243 498.52 26.4069C498.52 26.1456 498.426 25.9403 498.24 25.7909C498.053 25.6416 497.764 25.5389 497.372 25.4829L496.084 25.3009C495.374 25.1983 494.842 24.9789 494.488 24.6429C494.133 24.3069 493.956 23.8589 493.956 23.2989C493.956 22.8696 494.072 22.4963 494.306 22.1789C494.539 21.8523 494.866 21.6003 495.286 21.4229C495.706 21.2363 496.196 21.1429 496.756 21.1429C497.269 21.1429 497.764 21.2176 498.24 21.3669C498.716 21.5163 499.173 21.7496 499.612 22.0669L498.898 22.9909C498.506 22.7296 498.123 22.5383 497.75 22.4169C497.386 22.2956 497.017 22.2349 496.644 22.2349C496.214 22.2349 495.869 22.3283 495.608 22.5149C495.346 22.6923 495.216 22.9256 495.216 23.2149C495.216 23.4763 495.304 23.6816 495.482 23.8309C495.668 23.9709 495.972 24.0689 496.392 24.1249L497.68 24.3069C498.389 24.4096 498.926 24.6289 499.29 24.9649C499.654 25.2916 499.836 25.7349 499.836 26.2949C499.836 26.7243 499.705 27.1116 499.444 27.4569C499.182 27.7929 498.828 28.0589 498.38 28.2549C497.932 28.4509 497.423 28.5489 496.854 28.5489ZM504.116 28.5349C503.416 28.5349 502.781 28.3716 502.212 28.0449C501.652 27.7183 501.204 27.2749 500.868 26.7149C500.541 26.1549 500.378 25.5296 500.378 24.8389C500.378 24.1576 500.536 23.5416 500.854 22.9909C501.171 22.4309 501.6 21.9876 502.142 21.6609C502.683 21.3249 503.285 21.1569 503.948 21.1569C504.61 21.1569 505.198 21.3249 505.712 21.6609C506.225 21.9876 506.631 22.4356 506.93 23.0049C507.238 23.5649 507.392 24.1996 507.392 24.9089V25.3009H501.778C501.852 25.6929 501.997 26.0429 502.212 26.3509C502.436 26.6589 502.716 26.9016 503.052 27.0789C503.397 27.2563 503.77 27.3449 504.172 27.3449C504.517 27.3449 504.848 27.2936 505.166 27.1909C505.492 27.0789 505.763 26.9203 505.978 26.7149L506.874 27.5969C506.454 27.9143 506.02 28.1523 505.572 28.3109C505.133 28.4603 504.648 28.5349 504.116 28.5349ZM501.792 24.2509H506.006C505.95 23.8776 505.819 23.5509 505.614 23.2709C505.418 22.9816 505.17 22.7576 504.872 22.5989C504.582 22.4309 504.265 22.3469 503.92 22.3469C503.565 22.3469 503.238 22.4263 502.94 22.5849C502.641 22.7436 502.389 22.9676 502.184 23.2569C501.988 23.5369 501.857 23.8683 501.792 24.2509ZM511.749 28.5209C511.086 28.5209 510.479 28.3576 509.929 28.0309C509.378 27.7043 508.944 27.2656 508.627 26.7149C508.309 26.1549 508.151 25.5296 508.151 24.8389C508.151 24.1483 508.309 23.5276 508.627 22.9769C508.953 22.4263 509.392 21.9876 509.943 21.6609C510.493 21.3343 511.105 21.1709 511.777 21.1709C512.169 21.1709 512.547 21.2316 512.911 21.3529C513.275 21.4743 513.611 21.6516 513.919 21.8849V18.6089L515.319 18.3429V28.4089H513.933V27.7229C513.326 28.2549 512.598 28.5209 511.749 28.5209ZM511.931 27.3029C512.341 27.3029 512.715 27.2283 513.051 27.0789C513.396 26.9296 513.685 26.7149 513.919 26.4349V23.2289C513.685 22.9676 513.396 22.7623 513.051 22.6129C512.715 22.4543 512.341 22.3749 511.931 22.3749C511.483 22.3749 511.077 22.4823 510.713 22.6969C510.349 22.9116 510.059 23.2056 509.845 23.5789C509.63 23.9429 509.523 24.3583 509.523 24.8249C509.523 25.2916 509.63 25.7116 509.845 26.0849C510.059 26.4583 510.349 26.7569 510.713 26.9809C511.077 27.1956 511.483 27.3029 511.931 27.3029Z" fill="#696F79"/>
<path d="M448.816 71.7609C447.045 71.7609 445.435 71.3983 443.984 70.6729C442.533 69.9476 441.317 68.9449 440.336 67.6649C439.376 66.3636 438.704 64.8489 438.32 63.1209H435.056V61.4889H438.096C438.075 61.2756 438.053 61.0623 438.032 60.8489C438.032 60.6356 438.032 60.4223 438.032 60.2089C438.032 59.9743 438.032 59.7396 438.032 59.5049C438.053 59.2703 438.075 59.0463 438.096 58.8329H435.056V57.2329H438.352C438.736 55.5049 439.419 54.0009 440.4 52.7209C441.381 51.4409 442.597 50.4489 444.048 49.7449C445.52 49.0196 447.141 48.6569 448.912 48.6569C450.683 48.6569 452.283 48.9983 453.712 49.6809C455.163 50.3423 456.379 51.3343 457.36 52.6569L455.664 53.9689C454.875 52.9023 453.893 52.0916 452.72 51.5369C451.568 50.9823 450.277 50.7049 448.848 50.7049C447.483 50.7049 446.245 50.9716 445.136 51.5049C444.027 52.0383 443.088 52.7956 442.32 53.7769C441.573 54.7369 441.029 55.8889 440.688 57.2329H449.744L449.168 58.8329H440.4C440.379 59.0463 440.357 59.2703 440.336 59.5049C440.336 59.7396 440.336 59.9743 440.336 60.2089C440.336 60.4223 440.336 60.6356 440.336 60.8489C440.357 61.0623 440.379 61.2756 440.4 61.4889H448.24L447.664 63.1209H440.688C441.008 64.4436 441.541 65.6063 442.288 66.6089C443.056 67.5903 443.995 68.3476 445.104 68.8809C446.213 69.4143 447.451 69.6809 448.816 69.6809C450.203 69.6809 451.493 69.4036 452.688 68.8489C453.904 68.2729 454.885 67.4623 455.632 66.4169L457.264 67.6969C456.283 68.9983 455.056 70.0009 453.584 70.7049C452.133 71.4089 450.544 71.7609 448.816 71.7609ZM466.845 48.6569C468.573 48.6569 470.087 49.1156 471.389 50.0329C472.711 50.9503 473.746 52.2196 474.493 53.8409C475.239 55.4409 475.613 57.2969 475.613 59.4089C475.613 61.8836 475.197 64.0489 474.365 65.9049C473.533 67.7396 472.359 69.1689 470.845 70.1929C469.351 71.2169 467.591 71.7289 465.565 71.7289C464.647 71.7289 463.719 71.6009 462.781 71.3449C461.863 71.0676 461.042 70.6943 460.317 70.2249L461.469 68.4329C462.13 68.8169 462.823 69.1156 463.549 69.3289C464.295 69.5423 465.031 69.6489 465.757 69.6489C467.293 69.6489 468.615 69.2543 469.725 68.4649C470.855 67.6543 471.73 66.5023 472.349 65.0089C472.967 63.4943 473.287 61.7023 473.309 59.6329C472.477 60.6996 471.485 61.5316 470.333 62.1289C469.181 62.7263 467.986 63.0249 466.749 63.0249C465.298 63.0249 464.007 62.7263 462.877 62.1289C461.746 61.5103 460.861 60.6783 460.221 59.6329C459.581 58.5876 459.261 57.3929 459.261 56.0489C459.261 54.6196 459.591 53.3503 460.253 52.2409C460.914 51.1316 461.81 50.2569 462.941 49.6169C464.093 48.9769 465.394 48.6569 466.845 48.6569ZM467.069 61.1369C468.242 61.1369 469.362 60.8489 470.429 60.2729C471.517 59.6756 472.455 58.8649 473.245 57.8409C473.095 56.3903 472.733 55.1316 472.157 54.0649C471.581 52.9983 470.845 52.1663 469.949 51.5689C469.053 50.9716 468.029 50.6729 466.877 50.6729C465.874 50.6729 464.967 50.9076 464.157 51.3769C463.346 51.8249 462.706 52.4543 462.237 53.2649C461.789 54.0543 461.565 54.9609 461.565 55.9849C461.565 56.9876 461.799 57.8836 462.269 58.6729C462.738 59.4409 463.389 60.0489 464.221 60.4969C465.053 60.9236 466.002 61.1369 467.069 61.1369ZM486.086 71.7609C484.55 71.7609 483.185 71.4836 481.99 70.9289C480.796 70.3743 479.846 69.6169 479.142 68.6569C478.46 67.6756 478.118 66.5769 478.118 65.3609C478.118 64.4436 478.342 63.6009 478.79 62.8329C479.238 62.0436 479.857 61.3716 480.646 60.8169C481.457 60.2409 482.374 59.8356 483.398 59.6009C482.097 59.2383 481.03 58.5876 480.198 57.6489C479.388 56.7103 478.982 55.6543 478.982 54.4809C478.982 53.3716 479.292 52.3796 479.91 51.5049C480.529 50.6303 481.372 49.9369 482.438 49.4249C483.526 48.9129 484.742 48.6569 486.086 48.6569C487.452 48.6569 488.668 48.9129 489.734 49.4249C490.801 49.9369 491.644 50.6303 492.262 51.5049C492.881 52.3796 493.19 53.3716 493.19 54.4809C493.19 55.6543 492.785 56.7103 491.974 57.6489C491.164 58.5876 490.097 59.2383 488.774 59.6009C490.332 59.9636 491.601 60.6783 492.582 61.7449C493.564 62.7903 494.054 63.9956 494.054 65.3609C494.054 66.5769 493.713 67.6756 493.03 68.6569C492.348 69.6169 491.398 70.3743 490.182 70.9289C488.988 71.4836 487.622 71.7609 486.086 71.7609ZM486.086 58.6409C487.004 58.6409 487.825 58.4596 488.55 58.0969C489.297 57.7343 489.884 57.2543 490.31 56.6569C490.737 56.0383 490.95 55.3449 490.95 54.5769C490.95 53.8089 490.737 53.1156 490.31 52.4969C489.884 51.8783 489.297 51.3983 488.55 51.0569C487.825 50.6943 487.004 50.5129 486.086 50.5129C485.169 50.5129 484.337 50.6943 483.59 51.0569C482.865 51.3983 482.289 51.8783 481.862 52.4969C481.436 53.1156 481.222 53.8089 481.222 54.5769C481.222 55.3449 481.436 56.0383 481.862 56.6569C482.289 57.2543 482.865 57.7343 483.59 58.0969C484.337 58.4596 485.169 58.6409 486.086 58.6409ZM486.086 69.9049C487.174 69.9049 488.145 69.7023 488.998 69.2969C489.852 68.8916 490.524 68.3369 491.014 67.6329C491.526 66.9289 491.782 66.1396 491.782 65.2649C491.782 64.3903 491.526 63.6009 491.014 62.8969C490.524 62.1929 489.852 61.6383 488.998 61.2329C488.145 60.8276 487.174 60.6249 486.086 60.6249C484.998 60.6249 484.028 60.8276 483.174 61.2329C482.321 61.6383 481.638 62.1929 481.126 62.8969C480.636 63.6009 480.39 64.3903 480.39 65.2649C480.39 66.1396 480.636 66.9289 481.126 67.6329C481.638 68.3369 482.321 68.8916 483.174 69.2969C484.028 69.7023 484.998 69.9049 486.086 69.9049ZM505.493 71.7609C503.701 71.7609 502.123 71.2703 500.757 70.2889C499.392 69.3076 498.315 67.9529 497.525 66.2249C496.757 64.4756 496.373 62.4703 496.373 60.2089C496.373 57.9476 496.757 55.9529 497.525 54.2249C498.315 52.4756 499.392 51.1103 500.757 50.1289C502.123 49.1476 503.701 48.6569 505.493 48.6569C507.285 48.6569 508.864 49.1476 510.229 50.1289C511.595 51.1103 512.661 52.4756 513.429 54.2249C514.219 55.9529 514.613 57.9476 514.613 60.2089C514.613 62.4703 514.219 64.4756 513.429 66.2249C512.661 67.9529 511.595 69.3076 510.229 70.2889C508.864 71.2703 507.285 71.7609 505.493 71.7609ZM505.493 69.6809C506.88 69.6809 508.075 69.2969 509.077 68.5289C510.101 67.7396 510.891 66.6303 511.445 65.2009C512 63.7716 512.277 62.1076 512.277 60.2089C512.277 58.2889 512 56.6249 511.445 55.2169C510.891 53.7876 510.101 52.6889 509.077 51.9209C508.075 51.1316 506.88 50.7369 505.493 50.7369C504.128 50.7369 502.933 51.1316 501.909 51.9209C500.885 52.6889 500.096 53.7876 499.541 55.2169C498.987 56.6249 498.709 58.2889 498.709 60.2089C498.709 62.1076 498.987 63.7716 499.541 65.2009C500.096 66.6303 500.885 67.7396 501.909 68.5289C502.933 69.2969 504.128 69.6809 505.493 69.6809ZM525.721 71.7609C523.929 71.7609 522.35 71.2703 520.985 70.2889C519.619 69.3076 518.542 67.9529 517.753 66.2249C516.985 64.4756 516.601 62.4703 516.601 60.2089C516.601 57.9476 516.985 55.9529 517.753 54.2249C518.542 52.4756 519.619 51.1103 520.985 50.1289C522.35 49.1476 523.929 48.6569 525.721 48.6569C527.513 48.6569 529.091 49.1476 530.457 50.1289C531.822 51.1103 532.889 52.4756 533.657 54.2249C534.446 55.9529 534.841 57.9476 534.841 60.2089C534.841 62.4703 534.446 64.4756 533.657 66.2249C532.889 67.9529 531.822 69.3076 530.457 70.2889C529.091 71.2703 527.513 71.7609 525.721 71.7609ZM525.721 69.6809C527.107 69.6809 528.302 69.2969 529.305 68.5289C530.329 67.7396 531.118 66.6303 531.673 65.2009C532.227 63.7716 532.505 62.1076 532.505 60.2089C532.505 58.2889 532.227 56.6249 531.673 55.2169C531.118 53.7876 530.329 52.6889 529.305 51.9209C528.302 51.1316 527.107 50.7369 525.721 50.7369C524.355 50.7369 523.161 51.1316 522.137 51.9209C521.113 52.6889 520.323 53.7876 519.769 55.2169C519.214 56.6249 518.937 58.2889 518.937 60.2089C518.937 62.1076 519.214 63.7716 519.769 65.2009C520.323 66.6303 521.113 67.7396 522.137 68.5289C523.161 69.2969 524.355 69.6809 525.721 69.6809Z" fill="#FF4400"/>
<rect x="434" y="87.4089" width="54.1029" height="23" rx="6" fill="#FF3C00" fill-opacity="0.08"/>
<rect x="434.5" y="87.9089" width="53.1029" height="22" rx="5.5" stroke="#FF3C00" stroke-opacity="0.08"/>
<path d="M444.627 97.1055C444.334 96.755 443.799 96.7456 443.494 97.0857L441.193 99.6503C440.764 100.129 441.096 100.89 441.738 100.901L446.248 100.98C446.891 100.991 447.249 100.242 446.837 99.7488L444.627 97.1055Z" fill="#44475C"/>
<path d="M457.196 102.53C456.587 102.53 456.034 102.405 455.535 102.156C455.036 101.907 454.618 101.562 454.281 101.122C453.951 100.675 453.72 100.154 453.588 99.5599H452.466V98.9989H453.511C453.504 98.9256 453.496 98.8523 453.489 98.7789C453.489 98.7056 453.489 98.6323 453.489 98.5589C453.489 98.4783 453.489 98.3976 453.489 98.3169C453.496 98.2363 453.504 98.1593 453.511 98.0859H452.466V97.5359H453.599C453.731 96.9419 453.966 96.4249 454.303 95.9849C454.64 95.5449 455.058 95.2039 455.557 94.9619C456.063 94.7126 456.62 94.5879 457.229 94.5879C457.838 94.5879 458.388 94.7053 458.879 94.9399C459.378 95.1673 459.796 95.5083 460.133 95.9629L459.55 96.4139C459.279 96.0473 458.941 95.7686 458.538 95.5779C458.142 95.3873 457.698 95.2919 457.207 95.2919C456.738 95.2919 456.312 95.3836 455.931 95.5669C455.55 95.7503 455.227 96.0106 454.963 96.3479C454.706 96.6779 454.519 97.0739 454.402 97.5359H457.515L457.317 98.0859H454.303C454.296 98.1593 454.288 98.2363 454.281 98.3169C454.281 98.3976 454.281 98.4783 454.281 98.5589C454.281 98.6323 454.281 98.7056 454.281 98.7789C454.288 98.8523 454.296 98.9256 454.303 98.9989H456.998L456.8 99.5599H454.402C454.512 100.015 454.695 100.414 454.952 100.759C455.216 101.096 455.539 101.357 455.92 101.54C456.301 101.723 456.727 101.815 457.196 101.815C457.673 101.815 458.116 101.72 458.527 101.529C458.945 101.331 459.282 101.052 459.539 100.693L460.1 101.133C459.763 101.58 459.341 101.925 458.835 102.167C458.336 102.409 457.79 102.53 457.196 102.53ZM463.712 102.53C463.184 102.53 462.715 102.435 462.304 102.244C461.894 102.053 461.567 101.793 461.325 101.463C461.091 101.126 460.973 100.748 460.973 100.33C460.973 100.015 461.05 99.7249 461.204 99.4609C461.358 99.1896 461.571 98.9586 461.842 98.7679C462.121 98.5699 462.436 98.4306 462.788 98.3499C462.341 98.2253 461.974 98.0016 461.688 97.6789C461.41 97.3563 461.27 96.9933 461.27 96.5899C461.27 96.2086 461.377 95.8676 461.589 95.5669C461.802 95.2663 462.092 95.0279 462.458 94.8519C462.832 94.6759 463.25 94.5879 463.712 94.5879C464.182 94.5879 464.6 94.6759 464.966 94.8519C465.333 95.0279 465.623 95.2663 465.835 95.5669C466.048 95.8676 466.154 96.2086 466.154 96.5899C466.154 96.9933 466.015 97.3563 465.736 97.6789C465.458 98.0016 465.091 98.2253 464.636 98.3499C465.172 98.4746 465.608 98.7203 465.945 99.0869C466.283 99.4463 466.451 99.8606 466.451 100.33C466.451 100.748 466.334 101.126 466.099 101.463C465.865 101.793 465.538 102.053 465.12 102.244C464.71 102.435 464.24 102.53 463.712 102.53ZM463.712 98.0199C464.028 98.0199 464.31 97.9576 464.559 97.8329C464.816 97.7083 465.018 97.5433 465.164 97.3379C465.311 97.1253 465.384 96.8869 465.384 96.6229C465.384 96.3589 465.311 96.1206 465.164 95.9079C465.018 95.6953 464.816 95.5303 464.559 95.4129C464.31 95.2883 464.028 95.2259 463.712 95.2259C463.397 95.2259 463.111 95.2883 462.854 95.4129C462.605 95.5303 462.407 95.6953 462.26 95.9079C462.114 96.1206 462.04 96.3589 462.04 96.6229C462.04 96.8869 462.114 97.1253 462.26 97.3379C462.407 97.5433 462.605 97.7083 462.854 97.8329C463.111 97.9576 463.397 98.0199 463.712 98.0199ZM463.712 101.892C464.086 101.892 464.42 101.822 464.713 101.683C465.007 101.544 465.238 101.353 465.406 101.111C465.582 100.869 465.67 100.598 465.67 100.297C465.67 99.9963 465.582 99.7249 465.406 99.4829C465.238 99.2409 465.007 99.0503 464.713 98.9109C464.42 98.7716 464.086 98.7019 463.712 98.7019C463.338 98.7019 463.005 98.7716 462.711 98.9109C462.418 99.0503 462.183 99.2409 462.007 99.4829C461.839 99.7249 461.754 99.9963 461.754 100.297C461.754 100.598 461.839 100.869 462.007 101.111C462.183 101.353 462.418 101.544 462.711 101.683C463.005 101.822 463.338 101.892 463.712 101.892ZM470.493 102.53C469.877 102.53 469.335 102.361 468.865 102.024C468.396 101.687 468.026 101.221 467.754 100.627C467.49 100.026 467.358 99.3363 467.358 98.5589C467.358 97.7816 467.49 97.0959 467.754 96.5019C468.026 95.9006 468.396 95.4313 468.865 95.0939C469.335 94.7566 469.877 94.5879 470.493 94.5879C471.109 94.5879 471.652 94.7566 472.121 95.0939C472.591 95.4313 472.957 95.9006 473.221 96.5019C473.493 97.0959 473.628 97.7816 473.628 98.5589C473.628 99.3363 473.493 100.026 473.221 100.627C472.957 101.221 472.591 101.687 472.121 102.024C471.652 102.361 471.109 102.53 470.493 102.53ZM470.493 101.815C470.97 101.815 471.381 101.683 471.725 101.419C472.077 101.148 472.349 100.766 472.539 100.275C472.73 99.7836 472.825 99.2116 472.825 98.5589C472.825 97.8989 472.73 97.3269 472.539 96.8429C472.349 96.3516 472.077 95.9739 471.725 95.7099C471.381 95.4386 470.97 95.3029 470.493 95.3029C470.024 95.3029 469.613 95.4386 469.261 95.7099C468.909 95.9739 468.638 96.3516 468.447 96.8429C468.257 97.3269 468.161 97.8989 468.161 98.5589C468.161 99.2116 468.257 99.7836 468.447 100.275C468.638 100.766 468.909 101.148 469.261 101.419C469.613 101.683 470.024 101.815 470.493 101.815ZM477.557 102.53C476.941 102.53 476.398 102.361 475.929 102.024C475.459 101.687 475.089 101.221 474.818 100.627C474.554 100.026 474.422 99.3363 474.422 98.5589C474.422 97.7816 474.554 97.0959 474.818 96.5019C475.089 95.9006 475.459 95.4313 475.929 95.0939C476.398 94.7566 476.941 94.5879 477.557 94.5879C478.173 94.5879 478.715 94.7566 479.185 95.0939C479.654 95.4313 480.021 95.9006 480.285 96.5019C480.556 97.0959 480.692 97.7816 480.692 98.5589C480.692 99.3363 480.556 100.026 480.285 100.627C480.021 101.221 479.654 101.687 479.185 102.024C478.715 102.361 478.173 102.53 477.557 102.53ZM477.557 101.815C478.033 101.815 478.444 101.683 478.789 101.419C479.141 101.148 479.412 100.766 479.603 100.275C479.793 99.7836 479.889 99.2116 479.889 98.5589C479.889 97.8989 479.793 97.3269 479.603 96.8429C479.412 96.3516 479.141 95.9739 478.789 95.7099C478.444 95.4386 478.033 95.3029 477.557 95.3029C477.087 95.3029 476.677 95.4386 476.325 95.7099C475.973 95.9739 475.701 96.3516 475.511 96.8429C475.32 97.3269 475.225 97.8989 475.225 98.5589C475.225 99.2116 475.32 99.7836 475.511 100.275C475.701 100.766 475.973 101.148 476.325 101.419C476.677 101.683 477.087 101.815 477.557 101.815Z" fill="#44475C"/>
</svg>
