<svg width="200" height="25" viewBox="0 0 200 25" fill="none" xmlns="http://www.w3.org/2000/svg">
<path d="M15.0925 13.6186C15.4124 14.1626 15.5924 14.8425 15.5924 15.6391V15.6779C15.5924 16.4938 15.4324 17.2321 15.0925 17.8926C14.7525 18.5531 14.2725 19.0971 13.6726 19.5633C13.0526 20.0101 12.3127 20.3598 11.4328 20.6124C10.5528 20.8649 9.5729 20.9815 8.49299 20.9815C6.85312 20.9815 5.31324 20.7678 3.89335 20.321C2.47346 19.8741 1.25356 19.2136 0.233643 18.3394L3.11341 15.0174C3.99334 15.6779 4.91327 16.1442 5.87319 16.4161C6.83312 16.7075 7.79304 16.8435 8.75297 16.8435C9.25293 16.8435 9.5929 16.7852 9.81288 16.6687C10.0329 16.5521 10.1329 16.3773 10.1329 16.183V16.1442C10.1329 15.911 9.97287 15.7362 9.65289 15.5808C9.33292 15.4254 8.75297 15.2699 7.89303 15.1145C6.99311 14.9397 6.13317 14.726 5.31324 14.4929C4.4933 14.2597 3.77336 13.9489 3.15341 13.5798C2.53346 13.2107 2.0335 12.7444 1.67353 12.181C1.27356 11.5788 1.09357 10.8794 1.09357 10.0635V10.0246C1.09357 9.28642 1.23356 8.58704 1.53354 7.94595C1.83352 7.30486 2.27348 6.74148 2.85343 6.27523C3.43339 5.78955 4.15333 5.42044 4.99326 5.14846C5.8332 4.87648 6.81312 4.74049 7.93303 4.74049C9.49291 4.74049 10.8728 4.91534 12.0327 5.28445C13.2126 5.63414 14.2525 6.17809 15.1925 6.89689L12.5727 10.4132C11.8127 9.86923 10.9928 9.48069 10.1529 9.22814C9.29292 8.97558 8.49299 8.85902 7.75305 8.85902C7.35308 8.85902 7.0531 8.9173 6.87312 9.03387C6.67313 9.15043 6.59314 9.30584 6.59314 9.50011V9.53897C6.59314 9.75267 6.73313 9.92751 7.0331 10.0829C7.33308 10.2383 7.89303 10.3938 8.73297 10.5492C9.75289 10.724 10.6928 10.9377 11.5327 11.1903C12.3727 11.4428 13.0926 11.7731 13.7126 12.1616C14.2925 12.589 14.7725 13.0553 15.0925 13.6186ZM15.2924 9.46126H20.0321V20.6901H25.4116V9.46126H30.1513V5.0319H15.2924V9.46126ZM77.7675 4.06055L69.1082 20.6901H74.2678L77.7675 13.9683L81.2872 20.6901H86.4468L77.7675 4.06055ZM53.6494 4.06055L62.3287 20.6901H57.1691L53.6694 13.9683L50.1697 20.6901H46.67H45.0101H40.5304L37.4907 16.2219H37.4507H36.3508V20.6901H30.9712V5.0319H38.7906C40.2305 5.0319 41.4104 5.18731 42.3503 5.51757C43.2702 5.82841 44.0302 6.27523 44.5901 6.81918C45.0901 7.28543 45.4501 7.82939 45.69 8.43163C45.93 9.03387 46.05 9.73324 46.05 10.5297V10.5686C46.05 11.7148 45.77 12.6861 45.1901 13.4632C44.6301 14.2597 43.8502 14.8814 42.8703 15.3477L45.67 19.3108L53.6494 4.06055ZM40.6904 10.9183C40.6904 10.4132 40.5104 10.0441 40.1305 9.79152C39.7705 9.53897 39.2705 9.42241 38.6306 9.42241H36.2908V12.4919H38.6106C39.2505 12.4919 39.7705 12.3559 40.1305 12.0839C40.4904 11.8119 40.6904 11.4428 40.6904 10.9571V10.9183ZM69.2282 5.0319L65.7084 11.7731L62.1887 5.0319H57.0291L65.7084 21.6614L74.3678 5.0319H69.2282Z" fill="#8692A6"/>
<path d="M93.5088 18.8611V9.69908H95.3088V18.8611H93.5088ZM94.4088 8.22308C94.1088 8.22308 93.8508 8.11508 93.6348 7.89908C93.4188 7.67108 93.3108 7.40708 93.3108 7.10708C93.3108 6.79508 93.4188 6.53708 93.6348 6.33308C93.8508 6.11708 94.1088 6.00908 94.4088 6.00908C94.7208 6.00908 94.9848 6.11708 95.2008 6.33308C95.4168 6.53708 95.5248 6.79508 95.5248 7.10708C95.5248 7.40708 95.4168 7.67108 95.2008 7.89908C94.9848 8.11508 94.7208 8.22308 94.4088 8.22308ZM100.759 19.0411C99.9667 19.0411 99.2227 18.9271 98.5267 18.6991C97.8427 18.4591 97.2487 18.1231 96.7447 17.6911L97.7347 16.5031C98.2027 16.8751 98.6827 17.1631 99.1747 17.3671C99.6787 17.5591 100.189 17.6551 100.705 17.6551C101.353 17.6551 101.881 17.5291 102.289 17.2771C102.697 17.0251 102.901 16.6951 102.901 16.2871C102.901 15.9511 102.781 15.6871 102.541 15.4951C102.301 15.3031 101.929 15.1711 101.425 15.0991L99.7687 14.8651C98.8567 14.7331 98.1727 14.4511 97.7167 14.0191C97.2607 13.5871 97.0327 13.0111 97.0327 12.2911C97.0327 11.7391 97.1827 11.2591 97.4827 10.8511C97.7827 10.4311 98.2027 10.1071 98.7427 9.87908C99.2827 9.63908 99.9127 9.51908 100.633 9.51908C101.293 9.51908 101.929 9.61508 102.541 9.80708C103.153 9.99908 103.741 10.2991 104.305 10.7071L103.387 11.8951C102.883 11.5591 102.391 11.3131 101.911 11.1571C101.443 11.0011 100.969 10.9231 100.489 10.9231C99.9367 10.9231 99.4927 11.0431 99.1567 11.2831C98.8207 11.5111 98.6527 11.8111 98.6527 12.1831C98.6527 12.5191 98.7667 12.7831 98.9947 12.9751C99.2347 13.1551 99.6247 13.2811 100.165 13.3531L101.821 13.5871C102.733 13.7191 103.423 14.0011 103.891 14.4331C104.359 14.8531 104.593 15.4231 104.593 16.1431C104.593 16.6951 104.425 17.1931 104.089 17.6371C103.753 18.0691 103.297 18.4111 102.721 18.6631C102.145 18.9151 101.491 19.0411 100.759 19.0411ZM114.4 19.0231C113.524 19.0231 112.726 18.8131 112.006 18.3931C111.286 17.9731 110.716 17.4031 110.296 16.6831C109.888 15.9631 109.684 15.1591 109.684 14.2711C109.684 13.3831 109.894 12.5851 110.314 11.8771C110.734 11.1571 111.298 10.5871 112.006 10.1671C112.726 9.73508 113.524 9.51908 114.4 9.51908C115.096 9.51908 115.762 9.65108 116.398 9.91508C117.046 10.1791 117.604 10.5511 118.072 11.0311L116.956 12.2731C116.608 11.8891 116.218 11.6011 115.786 11.4091C115.354 11.2171 114.904 11.1211 114.436 11.1211C113.884 11.1211 113.38 11.2591 112.924 11.5351C112.48 11.8111 112.126 12.1891 111.862 12.6691C111.598 13.1491 111.466 13.6831 111.466 14.2711C111.466 14.8591 111.598 15.3931 111.862 15.8731C112.126 16.3531 112.486 16.7371 112.942 17.0251C113.398 17.3011 113.908 17.4391 114.472 17.4391C114.94 17.4391 115.378 17.3491 115.786 17.1691C116.194 16.9771 116.578 16.7011 116.938 16.3411L118.036 17.4931C117.556 17.9851 116.998 18.3631 116.362 18.6271C115.738 18.8911 115.084 19.0231 114.4 19.0231ZM123.757 19.0411C122.869 19.0411 122.059 18.8311 121.327 18.4111C120.607 17.9911 120.037 17.4211 119.617 16.7011C119.197 15.9811 118.987 15.1771 118.987 14.2891C118.987 13.4011 119.197 12.5971 119.617 11.8771C120.037 11.1571 120.607 10.5871 121.327 10.1671C122.059 9.73508 122.869 9.51908 123.757 9.51908C124.657 9.51908 125.467 9.73508 126.187 10.1671C126.907 10.5871 127.477 11.1571 127.897 11.8771C128.317 12.5971 128.527 13.4011 128.527 14.2891C128.527 15.1771 128.317 15.9811 127.897 16.7011C127.477 17.4211 126.907 17.9911 126.187 18.4111C125.467 18.8311 124.657 19.0411 123.757 19.0411ZM123.757 17.4571C124.321 17.4571 124.831 17.3191 125.287 17.0431C125.743 16.7551 126.103 16.3711 126.367 15.8911C126.631 15.4111 126.763 14.8711 126.763 14.2711C126.763 13.6831 126.625 13.1551 126.349 12.6871C126.085 12.2071 125.725 11.8231 125.269 11.5351C124.825 11.2471 124.321 11.1031 123.757 11.1031C123.193 11.1031 122.683 11.2471 122.227 11.5351C121.783 11.8231 121.423 12.2071 121.147 12.6871C120.883 13.1551 120.751 13.6831 120.751 14.2711C120.751 14.8711 120.883 15.4111 121.147 15.8911C121.411 16.3711 121.771 16.7551 122.227 17.0431C122.683 17.3191 123.193 17.4571 123.757 17.4571ZM130.409 18.8611V9.69908H132.209V10.6351C132.917 9.89108 133.835 9.51908 134.963 9.51908C135.671 9.51908 136.289 9.66908 136.817 9.96908C137.357 10.2691 137.777 10.6891 138.077 11.2291C138.389 11.7691 138.545 12.3931 138.545 13.1011V18.8611H136.745V13.4071C136.745 12.6871 136.541 12.1231 136.133 11.7151C135.737 11.2951 135.179 11.0851 134.459 11.0851C133.979 11.0851 133.547 11.1871 133.163 11.3911C132.779 11.5951 132.461 11.8891 132.209 12.2731V18.8611H130.409ZM140.802 18.8611V9.69908H142.602V10.6351C143.31 9.89108 144.228 9.51908 145.356 9.51908C146.064 9.51908 146.682 9.66908 147.21 9.96908C147.75 10.2691 148.17 10.6891 148.47 11.2291C148.782 11.7691 148.938 12.3931 148.938 13.1011V18.8611H147.138V13.4071C147.138 12.6871 146.934 12.1231 146.526 11.7151C146.13 11.2951 145.572 11.0851 144.852 11.0851C144.372 11.0851 143.94 11.1871 143.556 11.3911C143.172 11.5951 142.854 11.8891 142.602 12.2731V18.8611H140.802ZM155.587 19.0231C154.687 19.0231 153.871 18.8131 153.139 18.3931C152.419 17.9731 151.843 17.4031 151.411 16.6831C150.991 15.9631 150.781 15.1591 150.781 14.2711C150.781 13.3951 150.985 12.6031 151.393 11.8951C151.801 11.1751 152.353 10.6051 153.049 10.1851C153.745 9.75308 154.519 9.53708 155.371 9.53708C156.223 9.53708 156.979 9.75308 157.639 10.1851C158.299 10.6051 158.821 11.1811 159.205 11.9131C159.601 12.6331 159.799 13.4491 159.799 14.3611V14.8651H152.581C152.677 15.3691 152.863 15.8191 153.139 16.2151C153.427 16.6111 153.787 16.9231 154.219 17.1511C154.663 17.3791 155.143 17.4931 155.659 17.4931C156.103 17.4931 156.529 17.4271 156.937 17.2951C157.357 17.1511 157.705 16.9471 157.981 16.6831L159.133 17.8171C158.593 18.2251 158.035 18.5311 157.459 18.7351C156.895 18.9271 156.271 19.0231 155.587 19.0231ZM152.599 13.5151H158.017C157.945 13.0351 157.777 12.6151 157.513 12.2551C157.261 11.8831 156.943 11.5951 156.559 11.3911C156.187 11.1751 155.779 11.0671 155.335 11.0671C154.879 11.0671 154.459 11.1691 154.075 11.3731C153.691 11.5771 153.367 11.8651 153.103 12.2371C152.851 12.5971 152.683 13.0231 152.599 13.5151ZM166.03 19.0231C165.154 19.0231 164.356 18.8131 163.636 18.3931C162.916 17.9731 162.346 17.4031 161.926 16.6831C161.518 15.9631 161.314 15.1591 161.314 14.2711C161.314 13.3831 161.524 12.5851 161.944 11.8771C162.364 11.1571 162.928 10.5871 163.636 10.1671C164.356 9.73508 165.154 9.51908 166.03 9.51908C166.726 9.51908 167.392 9.65108 168.028 9.91508C168.676 10.1791 169.234 10.5511 169.702 11.0311L168.586 12.2731C168.238 11.8891 167.848 11.6011 167.416 11.4091C166.984 11.2171 166.534 11.1211 166.066 11.1211C165.514 11.1211 165.01 11.2591 164.554 11.5351C164.11 11.8111 163.756 12.1891 163.492 12.6691C163.228 13.1491 163.096 13.6831 163.096 14.2711C163.096 14.8591 163.228 15.3931 163.492 15.8731C163.756 16.3531 164.116 16.7371 164.572 17.0251C165.028 17.3011 165.538 17.4391 166.102 17.4391C166.57 17.4391 167.008 17.3491 167.416 17.1691C167.824 16.9771 168.208 16.7011 168.568 16.3411L169.666 17.4931C169.186 17.9851 168.628 18.3631 167.992 18.6271C167.368 18.8911 166.714 19.0231 166.03 19.0231ZM175.395 19.0231C174.507 19.0231 173.829 18.8191 173.361 18.4111C172.893 17.9911 172.659 17.3851 172.659 16.5931V11.2111H170.715V9.69908H172.659V7.35908L174.441 6.92708V9.69908H177.141V11.2111H174.441V16.1791C174.441 16.6471 174.543 16.9831 174.747 17.1871C174.963 17.3791 175.311 17.4751 175.791 17.4751C176.043 17.4751 176.265 17.4571 176.457 17.4211C176.661 17.3851 176.877 17.3311 177.105 17.2591V18.7711C176.865 18.8551 176.583 18.9151 176.259 18.9511C175.947 18.9991 175.659 19.0231 175.395 19.0231ZM182.898 19.0231C181.998 19.0231 181.182 18.8131 180.45 18.3931C179.73 17.9731 179.154 17.4031 178.722 16.6831C178.302 15.9631 178.092 15.1591 178.092 14.2711C178.092 13.3951 178.296 12.6031 178.704 11.8951C179.112 11.1751 179.664 10.6051 180.36 10.1851C181.056 9.75308 181.83 9.53708 182.682 9.53708C183.534 9.53708 184.29 9.75308 184.95 10.1851C185.61 10.6051 186.132 11.1811 186.516 11.9131C186.912 12.6331 187.11 13.4491 187.11 14.3611V14.8651H179.892C179.988 15.3691 180.174 15.8191 180.45 16.2151C180.738 16.6111 181.098 16.9231 181.53 17.1511C181.974 17.3791 182.454 17.4931 182.97 17.4931C183.414 17.4931 183.84 17.4271 184.248 17.2951C184.668 17.1511 185.016 16.9471 185.292 16.6831L186.444 17.8171C185.904 18.2251 185.346 18.5311 184.77 18.7351C184.206 18.9271 183.582 19.0231 182.898 19.0231ZM179.91 13.5151H185.328C185.256 13.0351 185.088 12.6151 184.824 12.2551C184.572 11.8831 184.254 11.5951 183.87 11.3911C183.498 11.1751 183.09 11.0671 182.646 11.0671C182.19 11.0671 181.77 11.1691 181.386 11.3731C181.002 11.5771 180.678 11.8651 180.414 12.2371C180.162 12.5971 179.994 13.0231 179.91 13.5151ZM193.252 19.0051C192.4 19.0051 191.62 18.7951 190.912 18.3751C190.204 17.9551 189.646 17.3911 189.238 16.6831C188.83 15.9631 188.626 15.1591 188.626 14.2711C188.626 13.3831 188.83 12.5851 189.238 11.8771C189.658 11.1691 190.222 10.6051 190.93 10.1851C191.638 9.76508 192.424 9.55508 193.288 9.55508C193.792 9.55508 194.278 9.63308 194.746 9.78908C195.214 9.94508 195.646 10.1731 196.042 10.4731V6.26108L197.842 5.91908V18.8611H196.06V17.9791C195.28 18.6631 194.344 19.0051 193.252 19.0051ZM193.486 17.4391C194.014 17.4391 194.494 17.3431 194.926 17.1511C195.37 16.9591 195.742 16.6831 196.042 16.3231V12.2011C195.742 11.8651 195.37 11.6011 194.926 11.4091C194.494 11.2051 194.014 11.1031 193.486 11.1031C192.91 11.1031 192.388 11.2411 191.92 11.5171C191.452 11.7931 191.08 12.1711 190.804 12.6511C190.528 13.1191 190.39 13.6531 190.39 14.2531C190.39 14.8531 190.528 15.3931 190.804 15.8731C191.08 16.3531 191.452 16.7371 191.92 17.0251C192.388 17.3011 192.91 17.4391 193.486 17.4391Z" fill="#8692A6"/>
</svg>
