<svg width="186" height="181" viewBox="0 0 186 181" fill="none" xmlns="http://www.w3.org/2000/svg">
<rect x="15.3403" y="31.8438" width="150" height="149" rx="74.5" fill="white" fill-opacity="0.13"/>
<rect x="38.8403" y="54.8438" width="103" height="103" rx="51.5" fill="white" fill-opacity="0.13"/>
<path d="M67.3404 112.094C66.7963 112.096 66.2629 111.943 65.8021 111.654C65.3413 111.364 64.972 110.95 64.7372 110.46C64.5024 109.969 64.4116 109.422 64.4754 108.881C64.5393 108.341 64.7551 107.83 65.0979 107.407L93.5604 78.0824C93.7739 77.836 94.0648 77.6694 94.3854 77.6102C94.7061 77.5509 95.0373 77.6023 95.3248 77.7561C95.6124 77.9099 95.8391 78.1569 95.9677 78.4565C96.0964 78.7561 96.1193 79.0905 96.0329 79.4049L90.5129 96.7124C90.3501 97.148 90.2954 97.6167 90.3536 98.0781C90.4117 98.5395 90.5809 98.9799 90.8466 99.3615C91.1124 99.7432 91.4667 100.055 91.8793 100.269C92.2919 100.484 92.7503 100.595 93.2154 100.594H113.34C113.884 100.592 114.418 100.744 114.879 101.034C115.339 101.323 115.709 101.737 115.944 102.228C116.178 102.718 116.269 103.266 116.205 103.806C116.141 104.346 115.926 104.857 115.583 105.28L87.1204 134.605C86.9069 134.851 86.6159 135.018 86.2953 135.077C85.9747 135.136 85.6434 135.085 85.3559 134.931C85.0684 134.777 84.8417 134.53 84.713 134.231C84.5844 133.931 84.5614 133.597 84.6479 133.282L90.1679 115.975C90.3306 115.539 90.3853 115.071 90.3272 114.609C90.269 114.148 90.0998 113.707 89.8341 113.326C89.5684 112.944 89.214 112.633 88.8015 112.418C88.3889 112.203 87.9304 112.092 87.4654 112.094H67.3404Z" stroke="white" stroke-width="3" stroke-linecap="round" stroke-linejoin="round"/>
<circle cx="181.15" cy="143.283" r="4.36908" fill="white"/>
<circle cx="153.444" cy="33.2831" r="2.66345" fill="white" fill-opacity="0.36"/>
<circle cx="3.14966" cy="133.66" r="2.99243" fill="white" fill-opacity="0.74"/>
<circle cx="13.1496" cy="62.2831" r="4.36908" fill="white" fill-opacity="0.89"/>
<circle cx="78.353" cy="3.90649" r="2.99243" fill="white" fill-opacity="0.74"/>
</svg>
