<svg width="28" height="29" viewBox="0 0 28 29" fill="none" xmlns="http://www.w3.org/2000/svg">
<path d="M12.8335 17.9301H15.1668C15.7857 17.9301 16.3792 17.6843 16.8167 17.2467C17.2543 16.8091 17.5002 16.2156 17.5002 15.5968C17.5002 14.9779 17.2543 14.3844 16.8167 13.9468C16.3792 13.5093 15.7857 13.2634 15.1668 13.2634H11.6668C10.9668 13.2634 10.3835 13.4968 10.0335 13.9634L3.50016 20.2634M8.16683 24.9301L10.0335 23.2968C10.3835 22.8301 10.9668 22.5968 11.6668 22.5968H16.3335C17.6168 22.5968 18.7835 22.1301 19.6002 21.1968L24.9668 16.0634C25.417 15.638 25.6798 15.0511 25.6973 14.4319C25.7148 13.8127 25.4856 13.212 25.0602 12.7618C24.6347 12.3116 24.0478 12.0488 23.4287 12.0313C22.8095 12.0138 22.2087 12.243 21.7585 12.6684L16.8585 17.2184M2.3335 19.0968L9.3335 26.0968M22.0502 10.9301C22.0502 12.7987 20.5354 14.3134 18.6668 14.3134C16.7983 14.3134 15.2835 12.7987 15.2835 10.9301C15.2835 9.06153 16.7983 7.54676 18.6668 7.54676C20.5354 7.54676 22.0502 9.06153 22.0502 10.9301ZM10.5002 6.26343C10.5002 8.19642 8.93316 9.76343 7.00016 9.76343C5.06717 9.76343 3.50016 8.19642 3.50016 6.26343C3.50016 4.33043 5.06717 2.76343 7.00016 2.76343C8.93316 2.76343 10.5002 4.33043 10.5002 6.26343Z" stroke="#44475C" stroke-width="2" stroke-linecap="round" stroke-linejoin="round"/>
</svg>
