<svg width="25" height="25" viewBox="0 0 25 25" fill="none" xmlns="http://www.w3.org/2000/svg">
<path d="M21.9435 7.23765L15.2188 2.6639C14.8031 2.38115 14.2975 2.22827 13.7778 2.22827C13.2582 2.22827 12.7523 2.38115 12.3366 2.6639L5.61188 7.23765C5.16445 7.54196 4.80127 7.93655 4.55115 8.3902C4.30103 8.84384 4.1709 9.3441 4.1709 9.85128V21.8303C4.1709 22.4079 4.42383 22.9619 4.87424 23.3703C5.32465 23.7788 5.93565 24.0083 6.57263 24.0083H20.983C21.62 24.0083 22.2307 23.7788 22.6811 23.3703C23.1315 22.9619 23.3848 22.4079 23.3848 21.8303V9.85128C23.3848 9.3441 23.2543 8.84384 23.0042 8.3902C22.7541 7.93655 22.3909 7.54196 21.9435 7.23765V7.23765Z" stroke="#44475C" stroke-width="1.91535" stroke-miterlimit="10"/>
<path d="M13.7783 13.2002V20.4054" stroke="#44475C" stroke-width="1.91535" stroke-miterlimit="10"/>
</svg>
