<svg width="24" height="24" viewBox="0 0 24 24" fill="none" xmlns="http://www.w3.org/2000/svg">
<path d="M16.2864 6.64492C16.2864 5.62209 15.88 4.64115 15.1568 3.91789C14.4335 3.19464 13.4527 2.78833 12.4298 2.78833C11.407 2.78833 10.4261 3.19464 9.70287 3.91789C8.97962 4.64115 8.57324 5.62209 8.57324 6.64492V8.57321C8.57324 9.59604 8.97962 10.577 9.70287 11.3002C10.4261 12.0235 11.407 12.4298 12.4298 12.4298C13.4527 12.4298 14.4335 12.0235 15.1568 11.3002C15.88 10.577 16.2864 9.59604 16.2864 8.57321V6.64492Z" stroke="#44475C" stroke-width="1.86358" stroke-miterlimit="10"/>
<path d="M3.75244 22.0713C5.21794 18.099 8.57317 15.3223 12.4298 15.3223C16.2863 15.3223 19.6416 18.099 21.1071 22.0713" stroke="#44475C" stroke-width="1.86358" stroke-miterlimit="10"/>
</svg>
